<mxfile host="app.diagrams.net" modified="2023-10-24T19:46:10.655Z" agent="Mozilla/5.0 (Windows NT 10.0; Win64; x64; rv:109.0) Gecko/20100101 Firefox/118.0" etag="B8gzbEWijQvY7L_1xldg" version="22.0.7" type="device">
  <diagram id="R2lEEEUBdFMjLlhIrx00" name="Page-1">
    <mxGraphModel dx="1434" dy="774" grid="1" gridSize="10" guides="1" tooltips="1" connect="1" arrows="1" fold="1" page="1" pageScale="1" pageWidth="850" pageHeight="1100" math="0" shadow="0" extFonts="Permanent Marker^https://fonts.googleapis.com/css?family=Permanent+Marker">
      <root>
        <mxCell id="0" />
        <mxCell id="1" parent="0" />
        <mxCell id="fq8F5aoSM7j0K_lfMNp--2" value="Temp" style="ellipse;whiteSpace=wrap;html=1;" parent="1" vertex="1">
          <mxGeometry x="20" y="935" width="60" height="30" as="geometry" />
        </mxCell>
        <mxCell id="fq8F5aoSM7j0K_lfMNp--3" value="&lt;u&gt;Date&lt;/u&gt;" style="ellipse;whiteSpace=wrap;html=1;" parent="1" vertex="1">
          <mxGeometry x="50" y="980" width="60" height="30" as="geometry" />
        </mxCell>
        <mxCell id="fq8F5aoSM7j0K_lfMNp--4" value="Sound Level" style="ellipse;whiteSpace=wrap;html=1;" parent="1" vertex="1">
          <mxGeometry x="140" y="940" width="60" height="40" as="geometry" />
        </mxCell>
        <mxCell id="fq8F5aoSM7j0K_lfMNp--5" value="Light Level" style="ellipse;whiteSpace=wrap;html=1;" parent="1" vertex="1">
          <mxGeometry x="198.96" y="980" width="60" height="30" as="geometry" />
        </mxCell>
        <mxCell id="fq8F5aoSM7j0K_lfMNp--6" value="Time" style="ellipse;whiteSpace=wrap;html=1;" parent="1" vertex="1">
          <mxGeometry x="20" y="830" width="40" height="30" as="geometry" />
        </mxCell>
        <mxCell id="fq8F5aoSM7j0K_lfMNp--7" value="" style="endArrow=none;html=1;rounded=0;entryX=0.75;entryY=1;entryDx=0;entryDy=0;exitX=0.5;exitY=0;exitDx=0;exitDy=0;" parent="1" source="fq8F5aoSM7j0K_lfMNp--4" target="fq8F5aoSM7j0K_lfMNp--104" edge="1">
          <mxGeometry width="50" height="50" relative="1" as="geometry">
            <mxPoint x="600" y="250" as="sourcePoint" />
            <mxPoint x="650" y="200" as="targetPoint" />
          </mxGeometry>
        </mxCell>
        <mxCell id="fq8F5aoSM7j0K_lfMNp--8" value="" style="endArrow=none;html=1;rounded=0;exitX=0.5;exitY=0;exitDx=0;exitDy=0;entryX=1;entryY=1;entryDx=0;entryDy=0;" parent="1" source="fq8F5aoSM7j0K_lfMNp--5" target="fq8F5aoSM7j0K_lfMNp--105" edge="1">
          <mxGeometry width="50" height="50" relative="1" as="geometry">
            <mxPoint x="225" y="965" as="sourcePoint" />
            <mxPoint x="490" y="210" as="targetPoint" />
          </mxGeometry>
        </mxCell>
        <mxCell id="fq8F5aoSM7j0K_lfMNp--10" value="" style="endArrow=none;html=1;rounded=0;entryX=0;entryY=1;entryDx=0;entryDy=0;exitX=0.5;exitY=0;exitDx=0;exitDy=0;" parent="1" source="fq8F5aoSM7j0K_lfMNp--2" target="fq8F5aoSM7j0K_lfMNp--104" edge="1">
          <mxGeometry width="50" height="50" relative="1" as="geometry">
            <mxPoint x="410" y="350" as="sourcePoint" />
            <mxPoint x="730" y="200" as="targetPoint" />
          </mxGeometry>
        </mxCell>
        <mxCell id="fq8F5aoSM7j0K_lfMNp--11" value="" style="endArrow=none;html=1;rounded=0;exitX=0.5;exitY=0;exitDx=0;exitDy=0;entryX=0.25;entryY=1;entryDx=0;entryDy=0;" parent="1" source="fq8F5aoSM7j0K_lfMNp--3" target="fq8F5aoSM7j0K_lfMNp--104" edge="1">
          <mxGeometry width="50" height="50" relative="1" as="geometry">
            <mxPoint x="720" y="232" as="sourcePoint" />
            <mxPoint x="722" y="180" as="targetPoint" />
          </mxGeometry>
        </mxCell>
        <mxCell id="fq8F5aoSM7j0K_lfMNp--12" value="" style="endArrow=none;html=1;rounded=0;entryX=0;entryY=0.5;entryDx=0;entryDy=0;exitX=1;exitY=0.5;exitDx=0;exitDy=0;" parent="1" source="fq8F5aoSM7j0K_lfMNp--6" target="fq8F5aoSM7j0K_lfMNp--104" edge="1">
          <mxGeometry width="50" height="50" relative="1" as="geometry">
            <mxPoint x="720" y="270" as="sourcePoint" />
            <mxPoint x="722" y="218" as="targetPoint" />
          </mxGeometry>
        </mxCell>
        <mxCell id="fq8F5aoSM7j0K_lfMNp--15" value="number of floors" style="ellipse;whiteSpace=wrap;html=1;" parent="1" vertex="1">
          <mxGeometry x="30" y="340" width="70" height="40" as="geometry" />
        </mxCell>
        <mxCell id="fq8F5aoSM7j0K_lfMNp--16" value="number of rooms" style="ellipse;whiteSpace=wrap;html=1;" parent="1" vertex="1">
          <mxGeometry x="30" y="290" width="70" height="40" as="geometry" />
        </mxCell>
        <mxCell id="fq8F5aoSM7j0K_lfMNp--17" value="&lt;u&gt;name&lt;/u&gt;" style="ellipse;whiteSpace=wrap;html=1;" parent="1" vertex="1">
          <mxGeometry x="30" y="240" width="70" height="40" as="geometry" />
        </mxCell>
        <mxCell id="fq8F5aoSM7j0K_lfMNp--21" value="" style="endArrow=none;html=1;rounded=0;exitX=1;exitY=0.5;exitDx=0;exitDy=0;" parent="1" source="fq8F5aoSM7j0K_lfMNp--17" edge="1">
          <mxGeometry width="50" height="50" relative="1" as="geometry">
            <mxPoint x="580" y="35" as="sourcePoint" />
            <mxPoint x="123.90672322415207" y="284.39262401341784" as="targetPoint" />
          </mxGeometry>
        </mxCell>
        <mxCell id="fq8F5aoSM7j0K_lfMNp--23" value="" style="endArrow=none;html=1;rounded=0;exitX=1;exitY=0.5;exitDx=0;exitDy=0;entryX=0;entryY=0.5;entryDx=0;entryDy=0;" parent="1" source="fq8F5aoSM7j0K_lfMNp--16" target="fq8F5aoSM7j0K_lfMNp--25" edge="1">
          <mxGeometry width="50" height="50" relative="1" as="geometry">
            <mxPoint x="90" y="270" as="sourcePoint" />
            <mxPoint x="110" y="310" as="targetPoint" />
          </mxGeometry>
        </mxCell>
        <mxCell id="fq8F5aoSM7j0K_lfMNp--24" value="" style="endArrow=none;html=1;rounded=0;exitX=1.057;exitY=0.35;exitDx=0;exitDy=0;exitPerimeter=0;entryX=0;entryY=1;entryDx=0;entryDy=0;" parent="1" source="fq8F5aoSM7j0K_lfMNp--15" edge="1">
          <mxGeometry width="50" height="50" relative="1" as="geometry">
            <mxPoint x="100" y="280" as="sourcePoint" />
            <mxPoint x="127.57359312880726" y="338.2842712474617" as="targetPoint" />
          </mxGeometry>
        </mxCell>
        <mxCell id="fq8F5aoSM7j0K_lfMNp--25" value="Building" style="rounded=0;whiteSpace=wrap;html=1;" parent="1" vertex="1">
          <mxGeometry x="120" y="280" width="120" height="60" as="geometry" />
        </mxCell>
        <mxCell id="fq8F5aoSM7j0K_lfMNp--26" value="Employee" style="rounded=0;whiteSpace=wrap;html=1;" parent="1" vertex="1">
          <mxGeometry x="530" y="400" width="80" height="40" as="geometry" />
        </mxCell>
        <mxCell id="fq8F5aoSM7j0K_lfMNp--28" value="Zip Code" style="ellipse;whiteSpace=wrap;html=1;" parent="1" vertex="1">
          <mxGeometry x="730" y="660" width="60" height="40" as="geometry" />
        </mxCell>
        <mxCell id="fq8F5aoSM7j0K_lfMNp--29" value="State" style="ellipse;whiteSpace=wrap;html=1;" parent="1" vertex="1">
          <mxGeometry x="770" y="610" width="60" height="40" as="geometry" />
        </mxCell>
        <mxCell id="fq8F5aoSM7j0K_lfMNp--30" value="Street Address" style="ellipse;whiteSpace=wrap;html=1;" parent="1" vertex="1">
          <mxGeometry x="750" y="515" width="60" height="40" as="geometry" />
        </mxCell>
        <mxCell id="fq8F5aoSM7j0K_lfMNp--31" value="City" style="ellipse;whiteSpace=wrap;html=1;" parent="1" vertex="1">
          <mxGeometry x="760" y="560" width="60" height="40" as="geometry" />
        </mxCell>
        <mxCell id="fq8F5aoSM7j0K_lfMNp--32" value="" style="endArrow=none;html=1;rounded=0;exitX=0.688;exitY=0.057;exitDx=0;exitDy=0;entryX=0;entryY=0.5;entryDx=0;entryDy=0;exitPerimeter=0;" parent="1" source="fq8F5aoSM7j0K_lfMNp--51" target="fq8F5aoSM7j0K_lfMNp--30" edge="1">
          <mxGeometry width="50" height="50" relative="1" as="geometry">
            <mxPoint x="730" y="520" as="sourcePoint" />
            <mxPoint x="130" y="320" as="targetPoint" />
          </mxGeometry>
        </mxCell>
        <mxCell id="fq8F5aoSM7j0K_lfMNp--33" value="" style="endArrow=none;html=1;rounded=0;exitX=1;exitY=0;exitDx=0;exitDy=0;entryX=0;entryY=0.5;entryDx=0;entryDy=0;" parent="1" source="fq8F5aoSM7j0K_lfMNp--51" target="fq8F5aoSM7j0K_lfMNp--31" edge="1">
          <mxGeometry width="50" height="50" relative="1" as="geometry">
            <mxPoint x="750" y="520" as="sourcePoint" />
            <mxPoint x="790" y="470" as="targetPoint" />
          </mxGeometry>
        </mxCell>
        <mxCell id="fq8F5aoSM7j0K_lfMNp--34" value="" style="endArrow=none;html=1;rounded=0;exitX=1;exitY=0.5;exitDx=0;exitDy=0;entryX=0;entryY=0.5;entryDx=0;entryDy=0;" parent="1" source="fq8F5aoSM7j0K_lfMNp--51" target="fq8F5aoSM7j0K_lfMNp--29" edge="1">
          <mxGeometry width="50" height="50" relative="1" as="geometry">
            <mxPoint x="750" y="540" as="sourcePoint" />
            <mxPoint x="800" y="480" as="targetPoint" />
          </mxGeometry>
        </mxCell>
        <mxCell id="fq8F5aoSM7j0K_lfMNp--35" value="" style="endArrow=none;html=1;rounded=0;exitX=1;exitY=1;exitDx=0;exitDy=0;entryX=0;entryY=0.5;entryDx=0;entryDy=0;" parent="1" source="fq8F5aoSM7j0K_lfMNp--51" target="fq8F5aoSM7j0K_lfMNp--28" edge="1">
          <mxGeometry width="50" height="50" relative="1" as="geometry">
            <mxPoint x="750" y="560" as="sourcePoint" />
            <mxPoint x="810" y="490" as="targetPoint" />
          </mxGeometry>
        </mxCell>
        <mxCell id="fq8F5aoSM7j0K_lfMNp--36" value="Department" style="rounded=0;whiteSpace=wrap;html=1;" parent="1" vertex="1">
          <mxGeometry x="487.5" y="660" width="75" height="40" as="geometry" />
        </mxCell>
        <mxCell id="fq8F5aoSM7j0K_lfMNp--37" value="" style="endArrow=none;html=1;rounded=0;exitX=1;exitY=0.25;exitDx=0;exitDy=0;entryX=0;entryY=0.5;entryDx=0;entryDy=0;" parent="1" source="fq8F5aoSM7j0K_lfMNp--36" target="fq8F5aoSM7j0K_lfMNp--51" edge="1">
          <mxGeometry width="50" height="50" relative="1" as="geometry">
            <mxPoint x="770" y="560" as="sourcePoint" />
            <mxPoint x="670" y="560" as="targetPoint" />
          </mxGeometry>
        </mxCell>
        <mxCell id="fq8F5aoSM7j0K_lfMNp--39" value="Email Address" style="ellipse;whiteSpace=wrap;html=1;" parent="1" vertex="1">
          <mxGeometry x="645" y="480" width="60" height="40" as="geometry" />
        </mxCell>
        <mxCell id="fq8F5aoSM7j0K_lfMNp--40" value="Web address" style="ellipse;whiteSpace=wrap;html=1;" parent="1" vertex="1">
          <mxGeometry x="600" y="680" width="60" height="40" as="geometry" />
        </mxCell>
        <mxCell id="fq8F5aoSM7j0K_lfMNp--41" value="Phone number" style="ellipse;whiteSpace=wrap;html=1;" parent="1" vertex="1">
          <mxGeometry x="550" y="770" width="60" height="40" as="geometry" />
        </mxCell>
        <mxCell id="fq8F5aoSM7j0K_lfMNp--42" value="" style="endArrow=none;html=1;rounded=0;entryX=0.5;entryY=0;entryDx=0;entryDy=0;exitX=0.75;exitY=1;exitDx=0;exitDy=0;" parent="1" source="fq8F5aoSM7j0K_lfMNp--36" target="fq8F5aoSM7j0K_lfMNp--41" edge="1">
          <mxGeometry width="50" height="50" relative="1" as="geometry">
            <mxPoint x="490" y="760" as="sourcePoint" />
            <mxPoint x="540" y="710" as="targetPoint" />
          </mxGeometry>
        </mxCell>
        <mxCell id="fq8F5aoSM7j0K_lfMNp--43" value="" style="endArrow=none;html=1;rounded=0;entryX=0;entryY=0.5;entryDx=0;entryDy=0;exitX=1;exitY=0.5;exitDx=0;exitDy=0;" parent="1" source="fq8F5aoSM7j0K_lfMNp--36" target="fq8F5aoSM7j0K_lfMNp--40" edge="1">
          <mxGeometry width="50" height="50" relative="1" as="geometry">
            <mxPoint x="610" y="670" as="sourcePoint" />
            <mxPoint x="660" y="710" as="targetPoint" />
          </mxGeometry>
        </mxCell>
        <mxCell id="fq8F5aoSM7j0K_lfMNp--44" value="" style="endArrow=none;html=1;rounded=0;entryX=0;entryY=0.5;entryDx=0;entryDy=0;exitX=0.75;exitY=0;exitDx=0;exitDy=0;" parent="1" source="fq8F5aoSM7j0K_lfMNp--36" target="48a9iGowGdMYhrsN0CHI-7" edge="1">
          <mxGeometry width="50" height="50" relative="1" as="geometry">
            <mxPoint x="620" y="680" as="sourcePoint" />
            <mxPoint x="670" y="720" as="targetPoint" />
          </mxGeometry>
        </mxCell>
        <mxCell id="fq8F5aoSM7j0K_lfMNp--48" value="&lt;i&gt;Room Number&lt;/i&gt;" style="ellipse;whiteSpace=wrap;html=1;" parent="1" vertex="1">
          <mxGeometry x="30" y="520" width="60" height="40" as="geometry" />
        </mxCell>
        <mxCell id="fq8F5aoSM7j0K_lfMNp--49" value="&lt;u&gt;Phone number&lt;/u&gt;" style="ellipse;whiteSpace=wrap;html=1;" parent="1" vertex="1">
          <mxGeometry x="15" y="570" width="60" height="40" as="geometry" />
        </mxCell>
        <mxCell id="fq8F5aoSM7j0K_lfMNp--50" value="Area" style="ellipse;whiteSpace=wrap;html=1;" parent="1" vertex="1">
          <mxGeometry x="30" y="625" width="60" height="40" as="geometry" />
        </mxCell>
        <mxCell id="fq8F5aoSM7j0K_lfMNp--51" value="Mailing Address" style="ellipse;whiteSpace=wrap;html=1;" parent="1" vertex="1">
          <mxGeometry x="650" y="610" width="80" height="50" as="geometry" />
        </mxCell>
        <mxCell id="fq8F5aoSM7j0K_lfMNp--53" value="&lt;u&gt;name&lt;/u&gt;" style="ellipse;whiteSpace=wrap;html=1;" parent="1" vertex="1">
          <mxGeometry x="450" y="760" width="70" height="40" as="geometry" />
        </mxCell>
        <mxCell id="fq8F5aoSM7j0K_lfMNp--54" value="" style="endArrow=none;html=1;rounded=0;entryX=0;entryY=1;entryDx=0;entryDy=0;exitX=0.5;exitY=0;exitDx=0;exitDy=0;" parent="1" source="fq8F5aoSM7j0K_lfMNp--53" target="fq8F5aoSM7j0K_lfMNp--36" edge="1">
          <mxGeometry width="50" height="50" relative="1" as="geometry">
            <mxPoint x="450" y="720" as="sourcePoint" />
            <mxPoint x="500" y="670" as="targetPoint" />
          </mxGeometry>
        </mxCell>
        <mxCell id="fq8F5aoSM7j0K_lfMNp--63" value="" style="endArrow=none;html=1;rounded=0;entryX=0.5;entryY=1;entryDx=0;entryDy=0;exitX=0.5;exitY=0;exitDx=0;exitDy=0;" parent="1" source="48a9iGowGdMYhrsN0CHI-19" target="48a9iGowGdMYhrsN0CHI-13" edge="1">
          <mxGeometry width="50" height="50" relative="1" as="geometry">
            <mxPoint x="330" y="730" as="sourcePoint" />
            <mxPoint x="395" y="720" as="targetPoint" />
          </mxGeometry>
        </mxCell>
        <mxCell id="fq8F5aoSM7j0K_lfMNp--64" value="" style="endArrow=none;html=1;rounded=0;entryX=1;entryY=1;entryDx=0;entryDy=0;exitX=0.5;exitY=0;exitDx=0;exitDy=0;" parent="1" source="48a9iGowGdMYhrsN0CHI-18" target="48a9iGowGdMYhrsN0CHI-13" edge="1">
          <mxGeometry width="50" height="50" relative="1" as="geometry">
            <mxPoint x="410" y="730" as="sourcePoint" />
            <mxPoint x="407.5" y="707.5" as="targetPoint" />
          </mxGeometry>
        </mxCell>
        <mxCell id="fq8F5aoSM7j0K_lfMNp--65" value="" style="endArrow=none;html=1;rounded=0;exitX=0.5;exitY=0;exitDx=0;exitDy=0;entryX=-0.006;entryY=0.89;entryDx=0;entryDy=0;entryPerimeter=0;" parent="1" source="48a9iGowGdMYhrsN0CHI-17" target="48a9iGowGdMYhrsN0CHI-13" edge="1">
          <mxGeometry width="50" height="50" relative="1" as="geometry">
            <mxPoint x="240" y="780" as="sourcePoint" />
            <mxPoint x="276.7157287525381" y="547.6776695296637" as="targetPoint" />
          </mxGeometry>
        </mxCell>
        <mxCell id="fq8F5aoSM7j0K_lfMNp--68" value="" style="endArrow=none;html=1;rounded=0;exitX=1;exitY=0.5;exitDx=0;exitDy=0;entryX=0;entryY=1;entryDx=0;entryDy=0;" parent="1" source="fq8F5aoSM7j0K_lfMNp--50" target="fq8F5aoSM7j0K_lfMNp--47" edge="1">
          <mxGeometry width="50" height="50" relative="1" as="geometry">
            <mxPoint x="110" y="640" as="sourcePoint" />
            <mxPoint x="147" y="603" as="targetPoint" />
          </mxGeometry>
        </mxCell>
        <mxCell id="fq8F5aoSM7j0K_lfMNp--69" value="" style="endArrow=none;html=1;rounded=0;exitX=1;exitY=0.5;exitDx=0;exitDy=0;entryX=0;entryY=0.5;entryDx=0;entryDy=0;" parent="1" source="fq8F5aoSM7j0K_lfMNp--49" target="fq8F5aoSM7j0K_lfMNp--47" edge="1">
          <mxGeometry width="50" height="50" relative="1" as="geometry">
            <mxPoint x="120" y="650" as="sourcePoint" />
            <mxPoint x="157" y="613" as="targetPoint" />
          </mxGeometry>
        </mxCell>
        <mxCell id="48a9iGowGdMYhrsN0CHI-15" value="1" style="edgeLabel;html=1;align=center;verticalAlign=middle;resizable=0;points=[];" parent="fq8F5aoSM7j0K_lfMNp--69" vertex="1" connectable="0">
          <mxGeometry x="0.2378" y="-1" relative="1" as="geometry">
            <mxPoint as="offset" />
          </mxGeometry>
        </mxCell>
        <mxCell id="fq8F5aoSM7j0K_lfMNp--70" value="" style="endArrow=none;html=1;rounded=0;exitX=1;exitY=0.5;exitDx=0;exitDy=0;entryX=0;entryY=0.25;entryDx=0;entryDy=0;" parent="1" source="fq8F5aoSM7j0K_lfMNp--48" target="fq8F5aoSM7j0K_lfMNp--47" edge="1">
          <mxGeometry width="50" height="50" relative="1" as="geometry">
            <mxPoint x="130" y="660" as="sourcePoint" />
            <mxPoint x="167" y="623" as="targetPoint" />
          </mxGeometry>
        </mxCell>
        <mxCell id="fq8F5aoSM7j0K_lfMNp--73" value="Max Capacity" style="ellipse;whiteSpace=wrap;html=1;" parent="1" vertex="1">
          <mxGeometry x="180" y="640" width="60" height="40" as="geometry" />
        </mxCell>
        <mxCell id="fq8F5aoSM7j0K_lfMNp--74" value="" style="endArrow=none;html=1;rounded=0;exitX=0.5;exitY=0;exitDx=0;exitDy=0;entryX=0.75;entryY=1;entryDx=0;entryDy=0;" parent="1" source="fq8F5aoSM7j0K_lfMNp--73" target="fq8F5aoSM7j0K_lfMNp--108" edge="1">
          <mxGeometry width="50" height="50" relative="1" as="geometry">
            <mxPoint x="270" y="730" as="sourcePoint" />
            <mxPoint x="370" y="720" as="targetPoint" />
          </mxGeometry>
        </mxCell>
        <mxCell id="fq8F5aoSM7j0K_lfMNp--78" value="Works for" style="rhombus;whiteSpace=wrap;html=1;" parent="1" vertex="1">
          <mxGeometry x="530" y="510" width="60" height="40" as="geometry" />
        </mxCell>
        <mxCell id="fq8F5aoSM7j0K_lfMNp--83" value="N" style="text;html=1;strokeColor=none;fillColor=none;align=center;verticalAlign=middle;whiteSpace=wrap;rounded=0;" parent="1" vertex="1">
          <mxGeometry x="510" y="570" width="30" height="20" as="geometry" />
        </mxCell>
        <mxCell id="fq8F5aoSM7j0K_lfMNp--85" value="M" style="text;html=1;strokeColor=none;fillColor=none;align=center;verticalAlign=middle;whiteSpace=wrap;rounded=0;" parent="1" vertex="1">
          <mxGeometry x="570" y="475" width="30" height="20" as="geometry" />
        </mxCell>
        <mxCell id="fq8F5aoSM7j0K_lfMNp--86" value="&lt;u&gt;ID Number&lt;/u&gt;" style="ellipse;whiteSpace=wrap;html=1;" parent="1" vertex="1">
          <mxGeometry x="645" y="360" width="70" height="40" as="geometry" />
        </mxCell>
        <mxCell id="fq8F5aoSM7j0K_lfMNp--87" value="name" style="ellipse;whiteSpace=wrap;html=1;" parent="1" vertex="1">
          <mxGeometry x="645" y="410" width="70" height="40" as="geometry" />
        </mxCell>
        <mxCell id="fq8F5aoSM7j0K_lfMNp--88" value="" style="endArrow=none;html=1;rounded=0;entryX=1;entryY=1;entryDx=0;entryDy=0;exitX=0;exitY=0;exitDx=0;exitDy=0;" parent="1" source="fq8F5aoSM7j0K_lfMNp--39" target="fq8F5aoSM7j0K_lfMNp--26" edge="1">
          <mxGeometry width="50" height="50" relative="1" as="geometry">
            <mxPoint x="490" y="490" as="sourcePoint" />
            <mxPoint x="540" y="440" as="targetPoint" />
          </mxGeometry>
        </mxCell>
        <mxCell id="48a9iGowGdMYhrsN0CHI-12" value="1" style="edgeLabel;html=1;align=center;verticalAlign=middle;resizable=0;points=[];" parent="fq8F5aoSM7j0K_lfMNp--88" vertex="1" connectable="0">
          <mxGeometry x="0.1372" y="-1" relative="1" as="geometry">
            <mxPoint as="offset" />
          </mxGeometry>
        </mxCell>
        <mxCell id="fq8F5aoSM7j0K_lfMNp--89" value="Year of Birth" style="ellipse;whiteSpace=wrap;html=1;" parent="1" vertex="1">
          <mxGeometry x="570" y="330" width="70" height="40" as="geometry" />
        </mxCell>
        <mxCell id="fq8F5aoSM7j0K_lfMNp--90" value="Age" style="ellipse;whiteSpace=wrap;html=1;dashed=1;" parent="1" vertex="1">
          <mxGeometry x="650" y="295" width="50" height="30" as="geometry" />
        </mxCell>
        <mxCell id="fq8F5aoSM7j0K_lfMNp--91" value="" style="endArrow=none;html=1;rounded=0;entryX=0;entryY=0.5;entryDx=0;entryDy=0;exitX=0.5;exitY=0;exitDx=0;exitDy=0;" parent="1" source="fq8F5aoSM7j0K_lfMNp--89" target="fq8F5aoSM7j0K_lfMNp--90" edge="1">
          <mxGeometry width="50" height="50" relative="1" as="geometry">
            <mxPoint x="540" y="320" as="sourcePoint" />
            <mxPoint x="590" y="270" as="targetPoint" />
          </mxGeometry>
        </mxCell>
        <mxCell id="fq8F5aoSM7j0K_lfMNp--94" value="" style="endArrow=none;html=1;rounded=0;entryX=0;entryY=0.5;entryDx=0;entryDy=0;exitX=1;exitY=0.25;exitDx=0;exitDy=0;" parent="1" source="fq8F5aoSM7j0K_lfMNp--26" target="fq8F5aoSM7j0K_lfMNp--86" edge="1">
          <mxGeometry width="50" height="50" relative="1" as="geometry">
            <mxPoint x="650" y="360" as="sourcePoint" />
            <mxPoint x="665" y="376" as="targetPoint" />
          </mxGeometry>
        </mxCell>
        <mxCell id="fq8F5aoSM7j0K_lfMNp--95" value="" style="endArrow=none;html=1;rounded=0;entryX=0.75;entryY=0;entryDx=0;entryDy=0;exitX=0.5;exitY=1;exitDx=0;exitDy=0;" parent="1" source="fq8F5aoSM7j0K_lfMNp--89" target="fq8F5aoSM7j0K_lfMNp--26" edge="1">
          <mxGeometry width="50" height="50" relative="1" as="geometry">
            <mxPoint x="640" y="374" as="sourcePoint" />
            <mxPoint x="655" y="390" as="targetPoint" />
          </mxGeometry>
        </mxCell>
        <mxCell id="fq8F5aoSM7j0K_lfMNp--96" value="" style="endArrow=none;html=1;rounded=0;entryX=0;entryY=0.5;entryDx=0;entryDy=0;exitX=1;exitY=0.5;exitDx=0;exitDy=0;" parent="1" source="fq8F5aoSM7j0K_lfMNp--26" target="fq8F5aoSM7j0K_lfMNp--87" edge="1">
          <mxGeometry width="50" height="50" relative="1" as="geometry">
            <mxPoint x="650" y="384" as="sourcePoint" />
            <mxPoint x="665" y="400" as="targetPoint" />
          </mxGeometry>
        </mxCell>
        <mxCell id="fq8F5aoSM7j0K_lfMNp--97" value="" style="shape=link;html=1;rounded=0;entryX=0.5;entryY=0;entryDx=0;entryDy=0;exitX=0.75;exitY=1;exitDx=0;exitDy=0;" parent="1" source="fq8F5aoSM7j0K_lfMNp--26" target="fq8F5aoSM7j0K_lfMNp--78" edge="1">
          <mxGeometry width="100" relative="1" as="geometry">
            <mxPoint x="450" y="290" as="sourcePoint" />
            <mxPoint x="550" y="290" as="targetPoint" />
          </mxGeometry>
        </mxCell>
        <mxCell id="fq8F5aoSM7j0K_lfMNp--98" value="&lt;font style=&quot;font-size: 9px;&quot;&gt;Assigned to&lt;br&gt;&lt;/font&gt;" style="rhombus;whiteSpace=wrap;html=1;" parent="1" vertex="1">
          <mxGeometry x="428.96" y="450" width="71.04" height="42.5" as="geometry" />
        </mxCell>
        <mxCell id="fq8F5aoSM7j0K_lfMNp--99" value="" style="shape=link;html=1;rounded=0;entryX=0;entryY=0.5;entryDx=0;entryDy=0;exitX=1;exitY=0.5;exitDx=0;exitDy=0;" parent="1" source="fq8F5aoSM7j0K_lfMNp--47" target="fq8F5aoSM7j0K_lfMNp--98" edge="1">
          <mxGeometry width="100" relative="1" as="geometry">
            <mxPoint x="600" y="450" as="sourcePoint" />
            <mxPoint x="600" y="480" as="targetPoint" />
          </mxGeometry>
        </mxCell>
        <mxCell id="fq8F5aoSM7j0K_lfMNp--106" value="" style="group" parent="1" vertex="1" connectable="0">
          <mxGeometry x="90" y="820" width="70" height="40" as="geometry" />
        </mxCell>
        <mxCell id="fq8F5aoSM7j0K_lfMNp--104" value="" style="rounded=0;whiteSpace=wrap;html=1;perimeterSpacing=0;" parent="fq8F5aoSM7j0K_lfMNp--106" vertex="1">
          <mxGeometry width="70" height="40" as="geometry" />
        </mxCell>
        <mxCell id="fq8F5aoSM7j0K_lfMNp--105" value="&lt;font style=&quot;font-size: 8px;&quot;&gt;Measurements&lt;/font&gt;" style="rounded=0;whiteSpace=wrap;html=1;" parent="fq8F5aoSM7j0K_lfMNp--106" vertex="1">
          <mxGeometry x="5" y="5" width="60" height="30" as="geometry" />
        </mxCell>
        <mxCell id="fq8F5aoSM7j0K_lfMNp--116" value="&lt;font style=&quot;font-size: 10px;&quot;&gt;Semester&lt;/font&gt;" style="ellipse;whiteSpace=wrap;html=1;dashed=1;" parent="1" vertex="1">
          <mxGeometry x="105" y="910" width="50" height="30" as="geometry" />
        </mxCell>
        <mxCell id="fq8F5aoSM7j0K_lfMNp--117" value="" style="endArrow=none;html=1;rounded=0;entryX=0.5;entryY=0;entryDx=0;entryDy=0;exitX=0.5;exitY=1;exitDx=0;exitDy=0;" parent="1" source="fq8F5aoSM7j0K_lfMNp--104" target="fq8F5aoSM7j0K_lfMNp--116" edge="1">
          <mxGeometry width="50" height="50" relative="1" as="geometry">
            <mxPoint x="70" y="1010" as="sourcePoint" />
            <mxPoint x="300" y="390" as="targetPoint" />
          </mxGeometry>
        </mxCell>
        <mxCell id="fq8F5aoSM7j0K_lfMNp--119" value="&lt;b&gt;&lt;u&gt;Assumptions&lt;/u&gt;&lt;/b&gt;" style="text;html=1;align=center;verticalAlign=middle;resizable=0;points=[];autosize=1;strokeColor=none;fillColor=none;" parent="1" vertex="1">
          <mxGeometry x="40" y="8" width="100" height="30" as="geometry" />
        </mxCell>
        <mxCell id="fq8F5aoSM7j0K_lfMNp--120" value="All departments are rooms in buildings" style="text;html=1;align=center;verticalAlign=middle;resizable=0;points=[];autosize=1;strokeColor=none;fillColor=none;" parent="1" vertex="1">
          <mxGeometry x="25" y="35" width="240" height="30" as="geometry" />
        </mxCell>
        <mxCell id="fq8F5aoSM7j0K_lfMNp--121" value="" style="group" parent="1" vertex="1" connectable="0">
          <mxGeometry x="110" y="550" width="130" height="70" as="geometry" />
        </mxCell>
        <mxCell id="fq8F5aoSM7j0K_lfMNp--108" value="" style="rounded=0;whiteSpace=wrap;html=1;" parent="fq8F5aoSM7j0K_lfMNp--121" vertex="1">
          <mxGeometry width="130" height="70" as="geometry" />
        </mxCell>
        <mxCell id="fq8F5aoSM7j0K_lfMNp--47" value="Room" style="rounded=0;whiteSpace=wrap;html=1;" parent="fq8F5aoSM7j0K_lfMNp--121" vertex="1">
          <mxGeometry x="5" y="5" width="120" height="60" as="geometry" />
        </mxCell>
        <mxCell id="fq8F5aoSM7j0K_lfMNp--122" value="Located in" style="shape=rhombus;perimeter=rhombusPerimeter;whiteSpace=wrap;html=1;align=center;" parent="1" vertex="1">
          <mxGeometry x="200" y="460" width="80" height="35" as="geometry" />
        </mxCell>
        <mxCell id="fq8F5aoSM7j0K_lfMNp--133" value="If a room&#39;s use is as a department, then it can only have a second use as either nothing or an office" style="text;html=1;align=center;verticalAlign=middle;resizable=0;points=[];autosize=1;strokeColor=none;fillColor=none;" parent="1" vertex="1">
          <mxGeometry x="15" y="70" width="560" height="30" as="geometry" />
        </mxCell>
        <mxCell id="fq8F5aoSM7j0K_lfMNp--135" value="1" style="text;html=1;strokeColor=none;fillColor=none;align=center;verticalAlign=middle;whiteSpace=wrap;rounded=0;" parent="1" vertex="1">
          <mxGeometry x="240" y="380" width="30" height="20" as="geometry" />
        </mxCell>
        <mxCell id="fq8F5aoSM7j0K_lfMNp--138" value="N" style="text;html=1;strokeColor=none;fillColor=none;align=center;verticalAlign=middle;whiteSpace=wrap;rounded=0;" parent="1" vertex="1">
          <mxGeometry x="250" y="510" width="30" height="20" as="geometry" />
        </mxCell>
        <mxCell id="fq8F5aoSM7j0K_lfMNp--140" value="" style="endArrow=classic;html=1;rounded=0;entryX=1;entryY=1;entryDx=0;entryDy=0;exitX=0.5;exitY=0;exitDx=0;exitDy=0;" parent="1" source="fq8F5aoSM7j0K_lfMNp--122" target="fq8F5aoSM7j0K_lfMNp--25" edge="1">
          <mxGeometry width="50" height="50" relative="1" as="geometry">
            <mxPoint x="320" y="570" as="sourcePoint" />
            <mxPoint x="370" y="520" as="targetPoint" />
          </mxGeometry>
        </mxCell>
        <mxCell id="bKKYOeD4bFl_OBeaU6XK-1" value="Building" style="shape=table;startSize=30;container=1;collapsible=1;childLayout=tableLayout;fixedRows=1;rowLines=0;fontStyle=1;align=center;resizeLast=1;html=1;" parent="1" vertex="1">
          <mxGeometry x="20" y="1710" width="405" height="140" as="geometry" />
        </mxCell>
        <mxCell id="bKKYOeD4bFl_OBeaU6XK-2" value="" style="shape=tableRow;horizontal=0;startSize=0;swimlaneHead=0;swimlaneBody=0;fillColor=none;collapsible=0;dropTarget=0;points=[[0,0.5],[1,0.5]];portConstraint=eastwest;top=0;left=0;right=0;bottom=1;" parent="bKKYOeD4bFl_OBeaU6XK-1" vertex="1">
          <mxGeometry y="30" width="405" height="30" as="geometry" />
        </mxCell>
        <mxCell id="bKKYOeD4bFl_OBeaU6XK-3" value="PK" style="shape=partialRectangle;connectable=0;fillColor=none;top=0;left=0;bottom=0;right=0;fontStyle=1;overflow=hidden;whiteSpace=wrap;html=1;" parent="bKKYOeD4bFl_OBeaU6XK-2" vertex="1">
          <mxGeometry width="30" height="30" as="geometry">
            <mxRectangle width="30" height="30" as="alternateBounds" />
          </mxGeometry>
        </mxCell>
        <mxCell id="bKKYOeD4bFl_OBeaU6XK-4" value="Name (string)" style="shape=partialRectangle;connectable=0;fillColor=none;top=0;left=0;bottom=0;right=0;align=left;spacingLeft=6;fontStyle=5;overflow=hidden;whiteSpace=wrap;html=1;" parent="bKKYOeD4bFl_OBeaU6XK-2" vertex="1">
          <mxGeometry x="30" width="105" height="30" as="geometry">
            <mxRectangle width="105" height="30" as="alternateBounds" />
          </mxGeometry>
        </mxCell>
        <mxCell id="bKKYOeD4bFl_OBeaU6XK-164" value="&#xa;Number of floors (int)&#xa;&#xa;" style="shape=partialRectangle;connectable=0;fillColor=none;top=0;left=0;bottom=0;right=0;align=left;spacingLeft=6;fontStyle=5;overflow=hidden;whiteSpace=wrap;html=1;" parent="bKKYOeD4bFl_OBeaU6XK-2" vertex="1">
          <mxGeometry x="135" width="130" height="30" as="geometry">
            <mxRectangle width="130" height="30" as="alternateBounds" />
          </mxGeometry>
        </mxCell>
        <mxCell id="bKKYOeD4bFl_OBeaU6XK-168" value="&#xa;Number of rooms (int)&#xa;&#xa;" style="shape=partialRectangle;connectable=0;fillColor=none;top=0;left=0;bottom=0;right=0;align=left;spacingLeft=6;fontStyle=5;overflow=hidden;whiteSpace=wrap;html=1;" parent="bKKYOeD4bFl_OBeaU6XK-2" vertex="1">
          <mxGeometry x="265" width="140" height="30" as="geometry">
            <mxRectangle width="140" height="30" as="alternateBounds" />
          </mxGeometry>
        </mxCell>
        <mxCell id="bKKYOeD4bFl_OBeaU6XK-5" value="" style="shape=tableRow;horizontal=0;startSize=0;swimlaneHead=0;swimlaneBody=0;fillColor=none;collapsible=0;dropTarget=0;points=[[0,0.5],[1,0.5]];portConstraint=eastwest;top=0;left=0;right=0;bottom=0;" parent="bKKYOeD4bFl_OBeaU6XK-1" vertex="1">
          <mxGeometry y="60" width="405" height="30" as="geometry" />
        </mxCell>
        <mxCell id="bKKYOeD4bFl_OBeaU6XK-6" value="" style="shape=partialRectangle;connectable=0;fillColor=none;top=0;left=0;bottom=0;right=0;editable=1;overflow=hidden;whiteSpace=wrap;html=1;" parent="bKKYOeD4bFl_OBeaU6XK-5" vertex="1">
          <mxGeometry width="30" height="30" as="geometry">
            <mxRectangle width="30" height="30" as="alternateBounds" />
          </mxGeometry>
        </mxCell>
        <mxCell id="bKKYOeD4bFl_OBeaU6XK-7" value="" style="shape=partialRectangle;connectable=0;fillColor=none;top=0;left=0;bottom=0;right=0;align=left;spacingLeft=6;overflow=hidden;whiteSpace=wrap;html=1;" parent="bKKYOeD4bFl_OBeaU6XK-5" vertex="1">
          <mxGeometry x="30" width="105" height="30" as="geometry">
            <mxRectangle width="105" height="30" as="alternateBounds" />
          </mxGeometry>
        </mxCell>
        <mxCell id="bKKYOeD4bFl_OBeaU6XK-165" style="shape=partialRectangle;connectable=0;fillColor=none;top=0;left=0;bottom=0;right=0;align=left;spacingLeft=6;overflow=hidden;whiteSpace=wrap;html=1;" parent="bKKYOeD4bFl_OBeaU6XK-5" vertex="1">
          <mxGeometry x="135" width="130" height="30" as="geometry">
            <mxRectangle width="130" height="30" as="alternateBounds" />
          </mxGeometry>
        </mxCell>
        <mxCell id="bKKYOeD4bFl_OBeaU6XK-169" style="shape=partialRectangle;connectable=0;fillColor=none;top=0;left=0;bottom=0;right=0;align=left;spacingLeft=6;overflow=hidden;whiteSpace=wrap;html=1;" parent="bKKYOeD4bFl_OBeaU6XK-5" vertex="1">
          <mxGeometry x="265" width="140" height="30" as="geometry">
            <mxRectangle width="140" height="30" as="alternateBounds" />
          </mxGeometry>
        </mxCell>
        <mxCell id="bKKYOeD4bFl_OBeaU6XK-8" value="" style="shape=tableRow;horizontal=0;startSize=0;swimlaneHead=0;swimlaneBody=0;fillColor=none;collapsible=0;dropTarget=0;points=[[0,0.5],[1,0.5]];portConstraint=eastwest;top=0;left=0;right=0;bottom=0;" parent="bKKYOeD4bFl_OBeaU6XK-1" vertex="1">
          <mxGeometry y="90" width="405" height="30" as="geometry" />
        </mxCell>
        <mxCell id="bKKYOeD4bFl_OBeaU6XK-9" value="" style="shape=partialRectangle;connectable=0;fillColor=none;top=0;left=0;bottom=0;right=0;editable=1;overflow=hidden;whiteSpace=wrap;html=1;" parent="bKKYOeD4bFl_OBeaU6XK-8" vertex="1">
          <mxGeometry width="30" height="30" as="geometry">
            <mxRectangle width="30" height="30" as="alternateBounds" />
          </mxGeometry>
        </mxCell>
        <mxCell id="bKKYOeD4bFl_OBeaU6XK-10" value="" style="shape=partialRectangle;connectable=0;fillColor=none;top=0;left=0;bottom=0;right=0;align=left;spacingLeft=6;overflow=hidden;whiteSpace=wrap;html=1;" parent="bKKYOeD4bFl_OBeaU6XK-8" vertex="1">
          <mxGeometry x="30" width="105" height="30" as="geometry">
            <mxRectangle width="105" height="30" as="alternateBounds" />
          </mxGeometry>
        </mxCell>
        <mxCell id="bKKYOeD4bFl_OBeaU6XK-166" value="" style="shape=partialRectangle;connectable=0;fillColor=none;top=0;left=0;bottom=0;right=0;align=left;spacingLeft=6;overflow=hidden;whiteSpace=wrap;html=1;" parent="bKKYOeD4bFl_OBeaU6XK-8" vertex="1">
          <mxGeometry x="135" width="130" height="30" as="geometry">
            <mxRectangle width="130" height="30" as="alternateBounds" />
          </mxGeometry>
        </mxCell>
        <mxCell id="bKKYOeD4bFl_OBeaU6XK-170" value="" style="shape=partialRectangle;connectable=0;fillColor=none;top=0;left=0;bottom=0;right=0;align=left;spacingLeft=6;overflow=hidden;whiteSpace=wrap;html=1;" parent="bKKYOeD4bFl_OBeaU6XK-8" vertex="1">
          <mxGeometry x="265" width="140" height="30" as="geometry">
            <mxRectangle width="140" height="30" as="alternateBounds" />
          </mxGeometry>
        </mxCell>
        <mxCell id="bKKYOeD4bFl_OBeaU6XK-11" value="" style="shape=tableRow;horizontal=0;startSize=0;swimlaneHead=0;swimlaneBody=0;fillColor=none;collapsible=0;dropTarget=0;points=[[0,0.5],[1,0.5]];portConstraint=eastwest;top=0;left=0;right=0;bottom=0;" parent="bKKYOeD4bFl_OBeaU6XK-1" vertex="1">
          <mxGeometry y="120" width="405" height="20" as="geometry" />
        </mxCell>
        <mxCell id="bKKYOeD4bFl_OBeaU6XK-12" value="" style="shape=partialRectangle;connectable=0;fillColor=none;top=0;left=0;bottom=0;right=0;editable=1;overflow=hidden;whiteSpace=wrap;html=1;" parent="bKKYOeD4bFl_OBeaU6XK-11" vertex="1">
          <mxGeometry width="30" height="20" as="geometry">
            <mxRectangle width="30" height="20" as="alternateBounds" />
          </mxGeometry>
        </mxCell>
        <mxCell id="bKKYOeD4bFl_OBeaU6XK-13" value="" style="shape=partialRectangle;connectable=0;fillColor=none;top=0;left=0;bottom=0;right=0;align=left;spacingLeft=6;overflow=hidden;whiteSpace=wrap;html=1;" parent="bKKYOeD4bFl_OBeaU6XK-11" vertex="1">
          <mxGeometry x="30" width="105" height="20" as="geometry">
            <mxRectangle width="105" height="20" as="alternateBounds" />
          </mxGeometry>
        </mxCell>
        <mxCell id="bKKYOeD4bFl_OBeaU6XK-167" style="shape=partialRectangle;connectable=0;fillColor=none;top=0;left=0;bottom=0;right=0;align=left;spacingLeft=6;overflow=hidden;whiteSpace=wrap;html=1;" parent="bKKYOeD4bFl_OBeaU6XK-11" vertex="1">
          <mxGeometry x="135" width="130" height="20" as="geometry">
            <mxRectangle width="130" height="20" as="alternateBounds" />
          </mxGeometry>
        </mxCell>
        <mxCell id="bKKYOeD4bFl_OBeaU6XK-171" style="shape=partialRectangle;connectable=0;fillColor=none;top=0;left=0;bottom=0;right=0;align=left;spacingLeft=6;overflow=hidden;whiteSpace=wrap;html=1;" parent="bKKYOeD4bFl_OBeaU6XK-11" vertex="1">
          <mxGeometry x="265" width="140" height="20" as="geometry">
            <mxRectangle width="140" height="20" as="alternateBounds" />
          </mxGeometry>
        </mxCell>
        <mxCell id="bKKYOeD4bFl_OBeaU6XK-14" value="Room" style="shape=table;startSize=30;container=1;collapsible=1;childLayout=tableLayout;fixedRows=1;rowLines=0;fontStyle=1;align=center;resizeLast=1;html=1;" parent="1" vertex="1">
          <mxGeometry x="80" y="2060" width="521.04" height="140" as="geometry" />
        </mxCell>
        <mxCell id="bKKYOeD4bFl_OBeaU6XK-15" value="" style="shape=tableRow;horizontal=0;startSize=0;swimlaneHead=0;swimlaneBody=0;fillColor=none;collapsible=0;dropTarget=0;points=[[0,0.5],[1,0.5]];portConstraint=eastwest;top=0;left=0;right=0;bottom=1;" parent="bKKYOeD4bFl_OBeaU6XK-14" vertex="1">
          <mxGeometry y="30" width="521.04" height="30" as="geometry" />
        </mxCell>
        <mxCell id="bKKYOeD4bFl_OBeaU6XK-16" value="PK" style="shape=partialRectangle;connectable=0;fillColor=none;top=0;left=0;bottom=0;right=0;fontStyle=1;overflow=hidden;whiteSpace=wrap;html=1;" parent="bKKYOeD4bFl_OBeaU6XK-15" vertex="1">
          <mxGeometry width="30" height="30" as="geometry">
            <mxRectangle width="30" height="30" as="alternateBounds" />
          </mxGeometry>
        </mxCell>
        <mxCell id="bKKYOeD4bFl_OBeaU6XK-17" value="&lt;font style=&quot;font-size: 8px;&quot;&gt;Room Number (int)&lt;/font&gt;" style="shape=partialRectangle;connectable=0;fillColor=none;top=0;left=0;bottom=0;right=0;align=left;spacingLeft=6;fontStyle=5;overflow=hidden;whiteSpace=wrap;html=1;" parent="bKKYOeD4bFl_OBeaU6XK-15" vertex="1">
          <mxGeometry x="30" width="71.03999999999996" height="30" as="geometry">
            <mxRectangle width="71.03999999999996" height="30" as="alternateBounds" />
          </mxGeometry>
        </mxCell>
        <mxCell id="SNrVMuQwNA9T67Mmig9U-10" value="&lt;font style=&quot;font-size: 8px;&quot;&gt;Building Name (string)&lt;/font&gt;" style="shape=partialRectangle;connectable=0;fillColor=none;top=0;left=0;bottom=0;right=0;align=left;spacingLeft=6;fontStyle=5;overflow=hidden;whiteSpace=wrap;html=1;" vertex="1" parent="bKKYOeD4bFl_OBeaU6XK-15">
          <mxGeometry x="101.03999999999996" width="70" height="30" as="geometry">
            <mxRectangle width="70" height="30" as="alternateBounds" />
          </mxGeometry>
        </mxCell>
        <mxCell id="bKKYOeD4bFl_OBeaU6XK-200" value="&lt;font style=&quot;font-size: 8px;&quot;&gt;Phone Number (int)&lt;/font&gt;" style="shape=partialRectangle;connectable=0;fillColor=none;top=0;left=0;bottom=0;right=0;align=left;spacingLeft=6;fontStyle=5;overflow=hidden;whiteSpace=wrap;html=1;" parent="bKKYOeD4bFl_OBeaU6XK-15" vertex="1">
          <mxGeometry x="171.03999999999996" width="90" height="30" as="geometry">
            <mxRectangle width="90" height="30" as="alternateBounds" />
          </mxGeometry>
        </mxCell>
        <mxCell id="bKKYOeD4bFl_OBeaU6XK-204" value="&lt;font style=&quot;font-size: 8px;&quot;&gt;Area:Square_Feet (float) &lt;/font&gt;" style="shape=partialRectangle;connectable=0;fillColor=none;top=0;left=0;bottom=0;right=0;align=left;spacingLeft=6;fontStyle=5;overflow=hidden;whiteSpace=wrap;html=1;" parent="bKKYOeD4bFl_OBeaU6XK-15" vertex="1">
          <mxGeometry x="261.03999999999996" width="110" height="30" as="geometry">
            <mxRectangle width="110" height="30" as="alternateBounds" />
          </mxGeometry>
        </mxCell>
        <mxCell id="bKKYOeD4bFl_OBeaU6XK-208" value="&lt;font style=&quot;font-size: 8px;&quot;&gt;Use 1(string)&lt;/font&gt;" style="shape=partialRectangle;connectable=0;fillColor=none;top=0;left=0;bottom=0;right=0;align=left;spacingLeft=6;fontStyle=5;overflow=hidden;whiteSpace=wrap;html=1;" parent="bKKYOeD4bFl_OBeaU6XK-15" vertex="1">
          <mxGeometry x="371.03999999999996" width="70" height="30" as="geometry">
            <mxRectangle width="70" height="30" as="alternateBounds" />
          </mxGeometry>
        </mxCell>
        <mxCell id="bKKYOeD4bFl_OBeaU6XK-222" value="&lt;font style=&quot;font-size: 8px;&quot;&gt;Max Capacity (int)&lt;/font&gt;" style="shape=partialRectangle;connectable=0;fillColor=none;top=0;left=0;bottom=0;right=0;align=left;spacingLeft=6;fontStyle=5;overflow=hidden;whiteSpace=wrap;html=1;" parent="bKKYOeD4bFl_OBeaU6XK-15" vertex="1">
          <mxGeometry x="441.03999999999996" width="80" height="30" as="geometry">
            <mxRectangle width="80" height="30" as="alternateBounds" />
          </mxGeometry>
        </mxCell>
        <mxCell id="bKKYOeD4bFl_OBeaU6XK-18" value="" style="shape=tableRow;horizontal=0;startSize=0;swimlaneHead=0;swimlaneBody=0;fillColor=none;collapsible=0;dropTarget=0;points=[[0,0.5],[1,0.5]];portConstraint=eastwest;top=0;left=0;right=0;bottom=1;" parent="bKKYOeD4bFl_OBeaU6XK-14" vertex="1">
          <mxGeometry y="60" width="521.04" height="30" as="geometry" />
        </mxCell>
        <mxCell id="bKKYOeD4bFl_OBeaU6XK-19" value="" style="shape=partialRectangle;connectable=0;fillColor=none;top=0;left=0;bottom=0;right=0;editable=1;overflow=hidden;whiteSpace=wrap;html=1;" parent="bKKYOeD4bFl_OBeaU6XK-18" vertex="1">
          <mxGeometry width="30" height="30" as="geometry">
            <mxRectangle width="30" height="30" as="alternateBounds" />
          </mxGeometry>
        </mxCell>
        <mxCell id="bKKYOeD4bFl_OBeaU6XK-20" value="pk" style="shape=partialRectangle;connectable=0;fillColor=none;top=0;left=0;bottom=0;right=0;align=left;spacingLeft=6;overflow=hidden;whiteSpace=wrap;html=1;" parent="bKKYOeD4bFl_OBeaU6XK-18" vertex="1">
          <mxGeometry x="30" width="71.03999999999996" height="30" as="geometry">
            <mxRectangle width="71.03999999999996" height="30" as="alternateBounds" />
          </mxGeometry>
        </mxCell>
        <mxCell id="SNrVMuQwNA9T67Mmig9U-11" value="fk, pk" style="shape=partialRectangle;connectable=0;fillColor=none;top=0;left=0;bottom=0;right=0;align=left;spacingLeft=6;overflow=hidden;whiteSpace=wrap;html=1;" vertex="1" parent="bKKYOeD4bFl_OBeaU6XK-18">
          <mxGeometry x="101.03999999999996" width="70" height="30" as="geometry">
            <mxRectangle width="70" height="30" as="alternateBounds" />
          </mxGeometry>
        </mxCell>
        <mxCell id="bKKYOeD4bFl_OBeaU6XK-201" value="&lt;font style=&quot;font-size: 8px;&quot;&gt;Unique&lt;/font&gt;" style="shape=partialRectangle;connectable=0;fillColor=none;top=0;left=0;bottom=0;right=0;align=left;spacingLeft=6;overflow=hidden;whiteSpace=wrap;html=1;" parent="bKKYOeD4bFl_OBeaU6XK-18" vertex="1">
          <mxGeometry x="171.03999999999996" width="90" height="30" as="geometry">
            <mxRectangle width="90" height="30" as="alternateBounds" />
          </mxGeometry>
        </mxCell>
        <mxCell id="bKKYOeD4bFl_OBeaU6XK-205" style="shape=partialRectangle;connectable=0;fillColor=none;top=0;left=0;bottom=0;right=0;align=left;spacingLeft=6;overflow=hidden;whiteSpace=wrap;html=1;" parent="bKKYOeD4bFl_OBeaU6XK-18" vertex="1">
          <mxGeometry x="261.03999999999996" width="110" height="30" as="geometry">
            <mxRectangle width="110" height="30" as="alternateBounds" />
          </mxGeometry>
        </mxCell>
        <mxCell id="bKKYOeD4bFl_OBeaU6XK-209" value="&lt;font style=&quot;font-size: 8px;&quot;&gt;Unique&lt;/font&gt;" style="shape=partialRectangle;connectable=0;fillColor=none;top=0;left=0;bottom=0;right=0;align=left;spacingLeft=6;overflow=hidden;whiteSpace=wrap;html=1;" parent="bKKYOeD4bFl_OBeaU6XK-18" vertex="1">
          <mxGeometry x="371.03999999999996" width="70" height="30" as="geometry">
            <mxRectangle width="70" height="30" as="alternateBounds" />
          </mxGeometry>
        </mxCell>
        <mxCell id="bKKYOeD4bFl_OBeaU6XK-223" style="shape=partialRectangle;connectable=0;fillColor=none;top=0;left=0;bottom=0;right=0;align=left;spacingLeft=6;overflow=hidden;whiteSpace=wrap;html=1;" parent="bKKYOeD4bFl_OBeaU6XK-18" vertex="1">
          <mxGeometry x="441.03999999999996" width="80" height="30" as="geometry">
            <mxRectangle width="80" height="30" as="alternateBounds" />
          </mxGeometry>
        </mxCell>
        <mxCell id="bKKYOeD4bFl_OBeaU6XK-21" value="" style="shape=tableRow;horizontal=0;startSize=0;swimlaneHead=0;swimlaneBody=0;fillColor=none;collapsible=0;dropTarget=0;points=[[0,0.5],[1,0.5]];portConstraint=eastwest;top=0;left=0;right=0;bottom=0;" parent="bKKYOeD4bFl_OBeaU6XK-14" vertex="1">
          <mxGeometry y="90" width="521.04" height="30" as="geometry" />
        </mxCell>
        <mxCell id="bKKYOeD4bFl_OBeaU6XK-22" value="" style="shape=partialRectangle;connectable=0;fillColor=none;top=0;left=0;bottom=0;right=0;editable=1;overflow=hidden;whiteSpace=wrap;html=1;" parent="bKKYOeD4bFl_OBeaU6XK-21" vertex="1">
          <mxGeometry width="30" height="30" as="geometry">
            <mxRectangle width="30" height="30" as="alternateBounds" />
          </mxGeometry>
        </mxCell>
        <mxCell id="bKKYOeD4bFl_OBeaU6XK-23" value="" style="shape=partialRectangle;connectable=0;fillColor=none;top=0;left=0;bottom=0;right=0;align=left;spacingLeft=6;overflow=hidden;whiteSpace=wrap;html=1;" parent="bKKYOeD4bFl_OBeaU6XK-21" vertex="1">
          <mxGeometry x="30" width="71.03999999999996" height="30" as="geometry">
            <mxRectangle width="71.03999999999996" height="30" as="alternateBounds" />
          </mxGeometry>
        </mxCell>
        <mxCell id="SNrVMuQwNA9T67Mmig9U-12" style="shape=partialRectangle;connectable=0;fillColor=none;top=0;left=0;bottom=0;right=0;align=left;spacingLeft=6;overflow=hidden;whiteSpace=wrap;html=1;" vertex="1" parent="bKKYOeD4bFl_OBeaU6XK-21">
          <mxGeometry x="101.03999999999996" width="70" height="30" as="geometry">
            <mxRectangle width="70" height="30" as="alternateBounds" />
          </mxGeometry>
        </mxCell>
        <mxCell id="bKKYOeD4bFl_OBeaU6XK-202" style="shape=partialRectangle;connectable=0;fillColor=none;top=0;left=0;bottom=0;right=0;align=left;spacingLeft=6;overflow=hidden;whiteSpace=wrap;html=1;" parent="bKKYOeD4bFl_OBeaU6XK-21" vertex="1">
          <mxGeometry x="171.03999999999996" width="90" height="30" as="geometry">
            <mxRectangle width="90" height="30" as="alternateBounds" />
          </mxGeometry>
        </mxCell>
        <mxCell id="bKKYOeD4bFl_OBeaU6XK-206" style="shape=partialRectangle;connectable=0;fillColor=none;top=0;left=0;bottom=0;right=0;align=left;spacingLeft=6;overflow=hidden;whiteSpace=wrap;html=1;" parent="bKKYOeD4bFl_OBeaU6XK-21" vertex="1">
          <mxGeometry x="261.03999999999996" width="110" height="30" as="geometry">
            <mxRectangle width="110" height="30" as="alternateBounds" />
          </mxGeometry>
        </mxCell>
        <mxCell id="bKKYOeD4bFl_OBeaU6XK-210" style="shape=partialRectangle;connectable=0;fillColor=none;top=0;left=0;bottom=0;right=0;align=left;spacingLeft=6;overflow=hidden;whiteSpace=wrap;html=1;" parent="bKKYOeD4bFl_OBeaU6XK-21" vertex="1">
          <mxGeometry x="371.03999999999996" width="70" height="30" as="geometry">
            <mxRectangle width="70" height="30" as="alternateBounds" />
          </mxGeometry>
        </mxCell>
        <mxCell id="bKKYOeD4bFl_OBeaU6XK-224" style="shape=partialRectangle;connectable=0;fillColor=none;top=0;left=0;bottom=0;right=0;align=left;spacingLeft=6;overflow=hidden;whiteSpace=wrap;html=1;" parent="bKKYOeD4bFl_OBeaU6XK-21" vertex="1">
          <mxGeometry x="441.03999999999996" width="80" height="30" as="geometry">
            <mxRectangle width="80" height="30" as="alternateBounds" />
          </mxGeometry>
        </mxCell>
        <mxCell id="bKKYOeD4bFl_OBeaU6XK-24" value="" style="shape=tableRow;horizontal=0;startSize=0;swimlaneHead=0;swimlaneBody=0;fillColor=none;collapsible=0;dropTarget=0;points=[[0,0.5],[1,0.5]];portConstraint=eastwest;top=0;left=0;right=0;bottom=0;" parent="bKKYOeD4bFl_OBeaU6XK-14" vertex="1">
          <mxGeometry y="120" width="521.04" height="20" as="geometry" />
        </mxCell>
        <mxCell id="bKKYOeD4bFl_OBeaU6XK-25" value="" style="shape=partialRectangle;connectable=0;fillColor=none;top=0;left=0;bottom=0;right=0;editable=1;overflow=hidden;whiteSpace=wrap;html=1;" parent="bKKYOeD4bFl_OBeaU6XK-24" vertex="1">
          <mxGeometry width="30" height="20" as="geometry">
            <mxRectangle width="30" height="20" as="alternateBounds" />
          </mxGeometry>
        </mxCell>
        <mxCell id="bKKYOeD4bFl_OBeaU6XK-26" value="" style="shape=partialRectangle;connectable=0;fillColor=none;top=0;left=0;bottom=0;right=0;align=left;spacingLeft=6;overflow=hidden;whiteSpace=wrap;html=1;" parent="bKKYOeD4bFl_OBeaU6XK-24" vertex="1">
          <mxGeometry x="30" width="71.03999999999996" height="20" as="geometry">
            <mxRectangle width="71.03999999999996" height="20" as="alternateBounds" />
          </mxGeometry>
        </mxCell>
        <mxCell id="SNrVMuQwNA9T67Mmig9U-13" style="shape=partialRectangle;connectable=0;fillColor=none;top=0;left=0;bottom=0;right=0;align=left;spacingLeft=6;overflow=hidden;whiteSpace=wrap;html=1;" vertex="1" parent="bKKYOeD4bFl_OBeaU6XK-24">
          <mxGeometry x="101.03999999999996" width="70" height="20" as="geometry">
            <mxRectangle width="70" height="20" as="alternateBounds" />
          </mxGeometry>
        </mxCell>
        <mxCell id="bKKYOeD4bFl_OBeaU6XK-203" style="shape=partialRectangle;connectable=0;fillColor=none;top=0;left=0;bottom=0;right=0;align=left;spacingLeft=6;overflow=hidden;whiteSpace=wrap;html=1;" parent="bKKYOeD4bFl_OBeaU6XK-24" vertex="1">
          <mxGeometry x="171.03999999999996" width="90" height="20" as="geometry">
            <mxRectangle width="90" height="20" as="alternateBounds" />
          </mxGeometry>
        </mxCell>
        <mxCell id="bKKYOeD4bFl_OBeaU6XK-207" style="shape=partialRectangle;connectable=0;fillColor=none;top=0;left=0;bottom=0;right=0;align=left;spacingLeft=6;overflow=hidden;whiteSpace=wrap;html=1;" parent="bKKYOeD4bFl_OBeaU6XK-24" vertex="1">
          <mxGeometry x="261.03999999999996" width="110" height="20" as="geometry">
            <mxRectangle width="110" height="20" as="alternateBounds" />
          </mxGeometry>
        </mxCell>
        <mxCell id="bKKYOeD4bFl_OBeaU6XK-211" style="shape=partialRectangle;connectable=0;fillColor=none;top=0;left=0;bottom=0;right=0;align=left;spacingLeft=6;overflow=hidden;whiteSpace=wrap;html=1;" parent="bKKYOeD4bFl_OBeaU6XK-24" vertex="1">
          <mxGeometry x="371.03999999999996" width="70" height="20" as="geometry">
            <mxRectangle width="70" height="20" as="alternateBounds" />
          </mxGeometry>
        </mxCell>
        <mxCell id="bKKYOeD4bFl_OBeaU6XK-225" style="shape=partialRectangle;connectable=0;fillColor=none;top=0;left=0;bottom=0;right=0;align=left;spacingLeft=6;overflow=hidden;whiteSpace=wrap;html=1;" parent="bKKYOeD4bFl_OBeaU6XK-24" vertex="1">
          <mxGeometry x="441.03999999999996" width="80" height="20" as="geometry">
            <mxRectangle width="80" height="20" as="alternateBounds" />
          </mxGeometry>
        </mxCell>
        <mxCell id="bKKYOeD4bFl_OBeaU6XK-40" value="Employee" style="shape=table;startSize=30;container=1;collapsible=1;childLayout=tableLayout;fixedRows=1;rowLines=0;fontStyle=1;align=center;resizeLast=1;html=1;" parent="1" vertex="1">
          <mxGeometry x="91.46000000000001" y="1880" width="720.0000000000002" height="140" as="geometry" />
        </mxCell>
        <mxCell id="bKKYOeD4bFl_OBeaU6XK-41" value="" style="shape=tableRow;horizontal=0;startSize=0;swimlaneHead=0;swimlaneBody=0;fillColor=none;collapsible=0;dropTarget=0;points=[[0,0.5],[1,0.5]];portConstraint=eastwest;top=0;left=0;right=0;bottom=1;" parent="bKKYOeD4bFl_OBeaU6XK-40" vertex="1">
          <mxGeometry y="30" width="720.0000000000002" height="30" as="geometry" />
        </mxCell>
        <mxCell id="bKKYOeD4bFl_OBeaU6XK-42" value="PK" style="shape=partialRectangle;connectable=0;fillColor=none;top=0;left=0;bottom=0;right=0;fontStyle=1;overflow=hidden;whiteSpace=wrap;html=1;" parent="bKKYOeD4bFl_OBeaU6XK-41" vertex="1">
          <mxGeometry width="30" height="30" as="geometry">
            <mxRectangle width="30" height="30" as="alternateBounds" />
          </mxGeometry>
        </mxCell>
        <mxCell id="bKKYOeD4bFl_OBeaU6XK-43" value="ID Number (int)" style="shape=partialRectangle;connectable=0;fillColor=none;top=0;left=0;bottom=0;right=0;align=left;spacingLeft=6;fontStyle=5;overflow=hidden;whiteSpace=wrap;html=1;" parent="bKKYOeD4bFl_OBeaU6XK-41" vertex="1">
          <mxGeometry x="30" width="70" height="30" as="geometry">
            <mxRectangle width="70" height="30" as="alternateBounds" />
          </mxGeometry>
        </mxCell>
        <mxCell id="bKKYOeD4bFl_OBeaU6XK-172" value="name (string)" style="shape=partialRectangle;connectable=0;fillColor=none;top=0;left=0;bottom=0;right=0;align=left;spacingLeft=6;fontStyle=5;overflow=hidden;whiteSpace=wrap;html=1;" parent="bKKYOeD4bFl_OBeaU6XK-41" vertex="1">
          <mxGeometry x="100" width="90" height="30" as="geometry">
            <mxRectangle width="90" height="30" as="alternateBounds" />
          </mxGeometry>
        </mxCell>
        <mxCell id="bKKYOeD4bFl_OBeaU6XK-176" value="Age (int)" style="shape=partialRectangle;connectable=0;fillColor=none;top=0;left=0;bottom=0;right=0;align=left;spacingLeft=6;fontStyle=5;overflow=hidden;whiteSpace=wrap;html=1;" parent="bKKYOeD4bFl_OBeaU6XK-41" vertex="1">
          <mxGeometry x="190" width="60" height="30" as="geometry">
            <mxRectangle width="60" height="30" as="alternateBounds" />
          </mxGeometry>
        </mxCell>
        <mxCell id="bKKYOeD4bFl_OBeaU6XK-180" value="&lt;div&gt;Year of Birth:&lt;/div&gt;&lt;div&gt;DDMMYYYY (int)&lt;/div&gt;" style="shape=partialRectangle;connectable=0;fillColor=none;top=0;left=0;bottom=0;right=0;align=left;spacingLeft=6;fontStyle=5;overflow=hidden;whiteSpace=wrap;html=1;" parent="bKKYOeD4bFl_OBeaU6XK-41" vertex="1">
          <mxGeometry x="250" width="100" height="30" as="geometry">
            <mxRectangle width="100" height="30" as="alternateBounds" />
          </mxGeometry>
        </mxCell>
        <mxCell id="bKKYOeD4bFl_OBeaU6XK-184" value="Email Address (string)" style="shape=partialRectangle;connectable=0;fillColor=none;top=0;left=0;bottom=0;right=0;align=left;spacingLeft=6;fontStyle=5;overflow=hidden;whiteSpace=wrap;html=1;" parent="bKKYOeD4bFl_OBeaU6XK-41" vertex="1">
          <mxGeometry x="350" width="140.00000000000023" height="30" as="geometry">
            <mxRectangle width="140.00000000000023" height="30" as="alternateBounds" />
          </mxGeometry>
        </mxCell>
        <mxCell id="bKKYOeD4bFl_OBeaU6XK-188" value="Department (string)" style="shape=partialRectangle;connectable=0;fillColor=none;top=0;left=0;bottom=0;right=0;align=left;spacingLeft=6;fontStyle=5;overflow=hidden;whiteSpace=wrap;html=1;" parent="bKKYOeD4bFl_OBeaU6XK-41" vertex="1">
          <mxGeometry x="490.0000000000002" width="119.99999999999977" height="30" as="geometry">
            <mxRectangle width="119.99999999999977" height="30" as="alternateBounds" />
          </mxGeometry>
        </mxCell>
        <mxCell id="bKKYOeD4bFl_OBeaU6XK-192" value="Room Number (int)" style="shape=partialRectangle;connectable=0;fillColor=none;top=0;left=0;bottom=0;right=0;align=left;spacingLeft=6;fontStyle=5;overflow=hidden;whiteSpace=wrap;html=1;" parent="bKKYOeD4bFl_OBeaU6XK-41" vertex="1">
          <mxGeometry x="610" width="110.00000000000023" height="30" as="geometry">
            <mxRectangle width="110.00000000000023" height="30" as="alternateBounds" />
          </mxGeometry>
        </mxCell>
        <mxCell id="bKKYOeD4bFl_OBeaU6XK-44" value="" style="shape=tableRow;horizontal=0;startSize=0;swimlaneHead=0;swimlaneBody=0;fillColor=none;collapsible=0;dropTarget=0;points=[[0,0.5],[1,0.5]];portConstraint=eastwest;top=0;left=0;right=0;bottom=1;" parent="bKKYOeD4bFl_OBeaU6XK-40" vertex="1">
          <mxGeometry y="60" width="720.0000000000002" height="30" as="geometry" />
        </mxCell>
        <mxCell id="bKKYOeD4bFl_OBeaU6XK-45" value="" style="shape=partialRectangle;connectable=0;fillColor=none;top=0;left=0;bottom=0;right=0;editable=1;overflow=hidden;whiteSpace=wrap;html=1;" parent="bKKYOeD4bFl_OBeaU6XK-44" vertex="1">
          <mxGeometry width="30" height="30" as="geometry">
            <mxRectangle width="30" height="30" as="alternateBounds" />
          </mxGeometry>
        </mxCell>
        <mxCell id="bKKYOeD4bFl_OBeaU6XK-46" value="" style="shape=partialRectangle;connectable=0;fillColor=none;top=0;left=0;bottom=0;right=0;align=left;spacingLeft=6;overflow=hidden;whiteSpace=wrap;html=1;" parent="bKKYOeD4bFl_OBeaU6XK-44" vertex="1">
          <mxGeometry x="30" width="70" height="30" as="geometry">
            <mxRectangle width="70" height="30" as="alternateBounds" />
          </mxGeometry>
        </mxCell>
        <mxCell id="bKKYOeD4bFl_OBeaU6XK-173" value="Unique" style="shape=partialRectangle;connectable=0;fillColor=none;top=0;left=0;bottom=0;right=0;align=left;spacingLeft=6;overflow=hidden;whiteSpace=wrap;html=1;" parent="bKKYOeD4bFl_OBeaU6XK-44" vertex="1">
          <mxGeometry x="100" width="90" height="30" as="geometry">
            <mxRectangle width="90" height="30" as="alternateBounds" />
          </mxGeometry>
        </mxCell>
        <mxCell id="bKKYOeD4bFl_OBeaU6XK-177" value="" style="shape=partialRectangle;connectable=0;fillColor=none;top=0;left=0;bottom=0;right=0;align=left;spacingLeft=6;overflow=hidden;whiteSpace=wrap;html=1;" parent="bKKYOeD4bFl_OBeaU6XK-44" vertex="1">
          <mxGeometry x="190" width="60" height="30" as="geometry">
            <mxRectangle width="60" height="30" as="alternateBounds" />
          </mxGeometry>
        </mxCell>
        <mxCell id="bKKYOeD4bFl_OBeaU6XK-181" value="Unique" style="shape=partialRectangle;connectable=0;fillColor=none;top=0;left=0;bottom=0;right=0;align=left;spacingLeft=6;overflow=hidden;whiteSpace=wrap;html=1;" parent="bKKYOeD4bFl_OBeaU6XK-44" vertex="1">
          <mxGeometry x="250" width="100" height="30" as="geometry">
            <mxRectangle width="100" height="30" as="alternateBounds" />
          </mxGeometry>
        </mxCell>
        <mxCell id="bKKYOeD4bFl_OBeaU6XK-185" value="Unique" style="shape=partialRectangle;connectable=0;fillColor=none;top=0;left=0;bottom=0;right=0;align=left;spacingLeft=6;overflow=hidden;whiteSpace=wrap;html=1;" parent="bKKYOeD4bFl_OBeaU6XK-44" vertex="1">
          <mxGeometry x="350" width="140.00000000000023" height="30" as="geometry">
            <mxRectangle width="140.00000000000023" height="30" as="alternateBounds" />
          </mxGeometry>
        </mxCell>
        <mxCell id="bKKYOeD4bFl_OBeaU6XK-189" value="Ref: Department" style="shape=partialRectangle;connectable=0;fillColor=none;top=0;left=0;bottom=0;right=0;align=left;spacingLeft=6;overflow=hidden;whiteSpace=wrap;html=1;" parent="bKKYOeD4bFl_OBeaU6XK-44" vertex="1">
          <mxGeometry x="490.0000000000002" width="119.99999999999977" height="30" as="geometry">
            <mxRectangle width="119.99999999999977" height="30" as="alternateBounds" />
          </mxGeometry>
        </mxCell>
        <mxCell id="bKKYOeD4bFl_OBeaU6XK-193" value="" style="shape=partialRectangle;connectable=0;fillColor=none;top=0;left=0;bottom=0;right=0;align=left;spacingLeft=6;overflow=hidden;whiteSpace=wrap;html=1;" parent="bKKYOeD4bFl_OBeaU6XK-44" vertex="1">
          <mxGeometry x="610" width="110.00000000000023" height="30" as="geometry">
            <mxRectangle width="110.00000000000023" height="30" as="alternateBounds" />
          </mxGeometry>
        </mxCell>
        <mxCell id="bKKYOeD4bFl_OBeaU6XK-47" value="" style="shape=tableRow;horizontal=0;startSize=0;swimlaneHead=0;swimlaneBody=0;fillColor=none;collapsible=0;dropTarget=0;points=[[0,0.5],[1,0.5]];portConstraint=eastwest;top=0;left=0;right=0;bottom=0;" parent="bKKYOeD4bFl_OBeaU6XK-40" vertex="1">
          <mxGeometry y="90" width="720.0000000000002" height="30" as="geometry" />
        </mxCell>
        <mxCell id="bKKYOeD4bFl_OBeaU6XK-48" value="" style="shape=partialRectangle;connectable=0;fillColor=none;top=0;left=0;bottom=0;right=0;editable=1;overflow=hidden;whiteSpace=wrap;html=1;" parent="bKKYOeD4bFl_OBeaU6XK-47" vertex="1">
          <mxGeometry width="30" height="30" as="geometry">
            <mxRectangle width="30" height="30" as="alternateBounds" />
          </mxGeometry>
        </mxCell>
        <mxCell id="bKKYOeD4bFl_OBeaU6XK-49" value="" style="shape=partialRectangle;connectable=0;fillColor=none;top=0;left=0;bottom=0;right=0;align=left;spacingLeft=6;overflow=hidden;whiteSpace=wrap;html=1;" parent="bKKYOeD4bFl_OBeaU6XK-47" vertex="1">
          <mxGeometry x="30" width="70" height="30" as="geometry">
            <mxRectangle width="70" height="30" as="alternateBounds" />
          </mxGeometry>
        </mxCell>
        <mxCell id="bKKYOeD4bFl_OBeaU6XK-174" style="shape=partialRectangle;connectable=0;fillColor=none;top=0;left=0;bottom=0;right=0;align=left;spacingLeft=6;overflow=hidden;whiteSpace=wrap;html=1;" parent="bKKYOeD4bFl_OBeaU6XK-47" vertex="1">
          <mxGeometry x="100" width="90" height="30" as="geometry">
            <mxRectangle width="90" height="30" as="alternateBounds" />
          </mxGeometry>
        </mxCell>
        <mxCell id="bKKYOeD4bFl_OBeaU6XK-178" style="shape=partialRectangle;connectable=0;fillColor=none;top=0;left=0;bottom=0;right=0;align=left;spacingLeft=6;overflow=hidden;whiteSpace=wrap;html=1;" parent="bKKYOeD4bFl_OBeaU6XK-47" vertex="1">
          <mxGeometry x="190" width="60" height="30" as="geometry">
            <mxRectangle width="60" height="30" as="alternateBounds" />
          </mxGeometry>
        </mxCell>
        <mxCell id="bKKYOeD4bFl_OBeaU6XK-182" style="shape=partialRectangle;connectable=0;fillColor=none;top=0;left=0;bottom=0;right=0;align=left;spacingLeft=6;overflow=hidden;whiteSpace=wrap;html=1;" parent="bKKYOeD4bFl_OBeaU6XK-47" vertex="1">
          <mxGeometry x="250" width="100" height="30" as="geometry">
            <mxRectangle width="100" height="30" as="alternateBounds" />
          </mxGeometry>
        </mxCell>
        <mxCell id="bKKYOeD4bFl_OBeaU6XK-186" style="shape=partialRectangle;connectable=0;fillColor=none;top=0;left=0;bottom=0;right=0;align=left;spacingLeft=6;overflow=hidden;whiteSpace=wrap;html=1;" parent="bKKYOeD4bFl_OBeaU6XK-47" vertex="1">
          <mxGeometry x="350" width="140.00000000000023" height="30" as="geometry">
            <mxRectangle width="140.00000000000023" height="30" as="alternateBounds" />
          </mxGeometry>
        </mxCell>
        <mxCell id="bKKYOeD4bFl_OBeaU6XK-190" style="shape=partialRectangle;connectable=0;fillColor=none;top=0;left=0;bottom=0;right=0;align=left;spacingLeft=6;overflow=hidden;whiteSpace=wrap;html=1;" parent="bKKYOeD4bFl_OBeaU6XK-47" vertex="1">
          <mxGeometry x="490.0000000000002" width="119.99999999999977" height="30" as="geometry">
            <mxRectangle width="119.99999999999977" height="30" as="alternateBounds" />
          </mxGeometry>
        </mxCell>
        <mxCell id="bKKYOeD4bFl_OBeaU6XK-194" style="shape=partialRectangle;connectable=0;fillColor=none;top=0;left=0;bottom=0;right=0;align=left;spacingLeft=6;overflow=hidden;whiteSpace=wrap;html=1;" parent="bKKYOeD4bFl_OBeaU6XK-47" vertex="1">
          <mxGeometry x="610" width="110.00000000000023" height="30" as="geometry">
            <mxRectangle width="110.00000000000023" height="30" as="alternateBounds" />
          </mxGeometry>
        </mxCell>
        <mxCell id="bKKYOeD4bFl_OBeaU6XK-50" value="" style="shape=tableRow;horizontal=0;startSize=0;swimlaneHead=0;swimlaneBody=0;fillColor=none;collapsible=0;dropTarget=0;points=[[0,0.5],[1,0.5]];portConstraint=eastwest;top=0;left=0;right=0;bottom=0;" parent="bKKYOeD4bFl_OBeaU6XK-40" vertex="1">
          <mxGeometry y="120" width="720.0000000000002" height="20" as="geometry" />
        </mxCell>
        <mxCell id="bKKYOeD4bFl_OBeaU6XK-51" value="" style="shape=partialRectangle;connectable=0;fillColor=none;top=0;left=0;bottom=0;right=0;editable=1;overflow=hidden;whiteSpace=wrap;html=1;" parent="bKKYOeD4bFl_OBeaU6XK-50" vertex="1">
          <mxGeometry width="30" height="20" as="geometry">
            <mxRectangle width="30" height="20" as="alternateBounds" />
          </mxGeometry>
        </mxCell>
        <mxCell id="bKKYOeD4bFl_OBeaU6XK-52" value="" style="shape=partialRectangle;connectable=0;fillColor=none;top=0;left=0;bottom=0;right=0;align=left;spacingLeft=6;overflow=hidden;whiteSpace=wrap;html=1;" parent="bKKYOeD4bFl_OBeaU6XK-50" vertex="1">
          <mxGeometry x="30" width="70" height="20" as="geometry">
            <mxRectangle width="70" height="20" as="alternateBounds" />
          </mxGeometry>
        </mxCell>
        <mxCell id="bKKYOeD4bFl_OBeaU6XK-175" style="shape=partialRectangle;connectable=0;fillColor=none;top=0;left=0;bottom=0;right=0;align=left;spacingLeft=6;overflow=hidden;whiteSpace=wrap;html=1;" parent="bKKYOeD4bFl_OBeaU6XK-50" vertex="1">
          <mxGeometry x="100" width="90" height="20" as="geometry">
            <mxRectangle width="90" height="20" as="alternateBounds" />
          </mxGeometry>
        </mxCell>
        <mxCell id="bKKYOeD4bFl_OBeaU6XK-179" style="shape=partialRectangle;connectable=0;fillColor=none;top=0;left=0;bottom=0;right=0;align=left;spacingLeft=6;overflow=hidden;whiteSpace=wrap;html=1;" parent="bKKYOeD4bFl_OBeaU6XK-50" vertex="1">
          <mxGeometry x="190" width="60" height="20" as="geometry">
            <mxRectangle width="60" height="20" as="alternateBounds" />
          </mxGeometry>
        </mxCell>
        <mxCell id="bKKYOeD4bFl_OBeaU6XK-183" style="shape=partialRectangle;connectable=0;fillColor=none;top=0;left=0;bottom=0;right=0;align=left;spacingLeft=6;overflow=hidden;whiteSpace=wrap;html=1;" parent="bKKYOeD4bFl_OBeaU6XK-50" vertex="1">
          <mxGeometry x="250" width="100" height="20" as="geometry">
            <mxRectangle width="100" height="20" as="alternateBounds" />
          </mxGeometry>
        </mxCell>
        <mxCell id="bKKYOeD4bFl_OBeaU6XK-187" style="shape=partialRectangle;connectable=0;fillColor=none;top=0;left=0;bottom=0;right=0;align=left;spacingLeft=6;overflow=hidden;whiteSpace=wrap;html=1;" parent="bKKYOeD4bFl_OBeaU6XK-50" vertex="1">
          <mxGeometry x="350" width="140.00000000000023" height="20" as="geometry">
            <mxRectangle width="140.00000000000023" height="20" as="alternateBounds" />
          </mxGeometry>
        </mxCell>
        <mxCell id="bKKYOeD4bFl_OBeaU6XK-191" style="shape=partialRectangle;connectable=0;fillColor=none;top=0;left=0;bottom=0;right=0;align=left;spacingLeft=6;overflow=hidden;whiteSpace=wrap;html=1;" parent="bKKYOeD4bFl_OBeaU6XK-50" vertex="1">
          <mxGeometry x="490.0000000000002" width="119.99999999999977" height="20" as="geometry">
            <mxRectangle width="119.99999999999977" height="20" as="alternateBounds" />
          </mxGeometry>
        </mxCell>
        <mxCell id="bKKYOeD4bFl_OBeaU6XK-195" style="shape=partialRectangle;connectable=0;fillColor=none;top=0;left=0;bottom=0;right=0;align=left;spacingLeft=6;overflow=hidden;whiteSpace=wrap;html=1;" parent="bKKYOeD4bFl_OBeaU6XK-50" vertex="1">
          <mxGeometry x="610" width="110.00000000000023" height="20" as="geometry">
            <mxRectangle width="110.00000000000023" height="20" as="alternateBounds" />
          </mxGeometry>
        </mxCell>
        <mxCell id="bKKYOeD4bFl_OBeaU6XK-92" value="department" style="shape=table;startSize=30;container=1;collapsible=1;childLayout=tableLayout;fixedRows=1;rowLines=0;fontStyle=1;align=center;resizeLast=1;html=1;" parent="1" vertex="1">
          <mxGeometry x="18.96" y="2520" width="780.0000000000002" height="150" as="geometry" />
        </mxCell>
        <mxCell id="bKKYOeD4bFl_OBeaU6XK-93" value="" style="shape=tableRow;horizontal=0;startSize=0;swimlaneHead=0;swimlaneBody=0;fillColor=none;collapsible=0;dropTarget=0;points=[[0,0.5],[1,0.5]];portConstraint=eastwest;top=0;left=0;right=0;bottom=1;" parent="bKKYOeD4bFl_OBeaU6XK-92" vertex="1">
          <mxGeometry y="30" width="780.0000000000002" height="30" as="geometry" />
        </mxCell>
        <mxCell id="bKKYOeD4bFl_OBeaU6XK-94" value="PK" style="shape=partialRectangle;connectable=0;fillColor=none;top=0;left=0;bottom=0;right=0;fontStyle=1;overflow=hidden;whiteSpace=wrap;html=1;" parent="bKKYOeD4bFl_OBeaU6XK-93" vertex="1">
          <mxGeometry width="30" height="30" as="geometry">
            <mxRectangle width="30" height="30" as="alternateBounds" />
          </mxGeometry>
        </mxCell>
        <mxCell id="bKKYOeD4bFl_OBeaU6XK-95" value="Name (String)&lt;br&gt;" style="shape=partialRectangle;connectable=0;fillColor=none;top=0;left=0;bottom=0;right=0;align=left;spacingLeft=6;fontStyle=5;overflow=hidden;whiteSpace=wrap;html=1;" parent="bKKYOeD4bFl_OBeaU6XK-93" vertex="1">
          <mxGeometry x="30" width="80" height="30" as="geometry">
            <mxRectangle width="80" height="30" as="alternateBounds" />
          </mxGeometry>
        </mxCell>
        <mxCell id="bKKYOeD4bFl_OBeaU6XK-228" value="Room Number (int)" style="shape=partialRectangle;connectable=0;fillColor=none;top=0;left=0;bottom=0;right=0;align=left;spacingLeft=6;fontStyle=5;overflow=hidden;whiteSpace=wrap;html=1;" parent="bKKYOeD4bFl_OBeaU6XK-93" vertex="1">
          <mxGeometry x="110" width="90" height="30" as="geometry">
            <mxRectangle width="90" height="30" as="alternateBounds" />
          </mxGeometry>
        </mxCell>
        <mxCell id="bKKYOeD4bFl_OBeaU6XK-232" value="Phone Number (int)" style="shape=partialRectangle;connectable=0;fillColor=none;top=0;left=0;bottom=0;right=0;align=left;spacingLeft=6;fontStyle=5;overflow=hidden;whiteSpace=wrap;html=1;" parent="bKKYOeD4bFl_OBeaU6XK-93" vertex="1">
          <mxGeometry x="200" width="120" height="30" as="geometry">
            <mxRectangle width="120" height="30" as="alternateBounds" />
          </mxGeometry>
        </mxCell>
        <mxCell id="bKKYOeD4bFl_OBeaU6XK-236" value="Web Address (string)" style="shape=partialRectangle;connectable=0;fillColor=none;top=0;left=0;bottom=0;right=0;align=left;spacingLeft=6;fontStyle=5;overflow=hidden;whiteSpace=wrap;html=1;" parent="bKKYOeD4bFl_OBeaU6XK-93" vertex="1">
          <mxGeometry x="320" width="130" height="30" as="geometry">
            <mxRectangle width="130" height="30" as="alternateBounds" />
          </mxGeometry>
        </mxCell>
        <mxCell id="bKKYOeD4bFl_OBeaU6XK-240" value="Mailing Address" style="shape=partialRectangle;connectable=0;fillColor=none;top=0;left=0;bottom=0;right=0;align=left;spacingLeft=6;fontStyle=5;overflow=hidden;whiteSpace=wrap;html=1;" parent="bKKYOeD4bFl_OBeaU6XK-93" vertex="1">
          <mxGeometry x="450" width="100.00000000000023" height="30" as="geometry">
            <mxRectangle width="100.00000000000023" height="30" as="alternateBounds" />
          </mxGeometry>
        </mxCell>
        <mxCell id="bKKYOeD4bFl_OBeaU6XK-244" value="Email Address (String)" style="shape=partialRectangle;connectable=0;fillColor=none;top=0;left=0;bottom=0;right=0;align=left;spacingLeft=6;fontStyle=5;overflow=hidden;whiteSpace=wrap;html=1;" parent="bKKYOeD4bFl_OBeaU6XK-93" vertex="1">
          <mxGeometry x="550.0000000000002" width="139.99999999999977" height="30" as="geometry">
            <mxRectangle width="139.99999999999977" height="30" as="alternateBounds" />
          </mxGeometry>
        </mxCell>
        <mxCell id="bKKYOeD4bFl_OBeaU6XK-248" value="&lt;div&gt;Employees&lt;br&gt;&lt;/div&gt;" style="shape=partialRectangle;connectable=0;fillColor=none;top=0;left=0;bottom=0;right=0;align=left;spacingLeft=6;fontStyle=5;overflow=hidden;whiteSpace=wrap;html=1;" parent="bKKYOeD4bFl_OBeaU6XK-93" vertex="1">
          <mxGeometry x="690" width="90.00000000000023" height="30" as="geometry">
            <mxRectangle width="90.00000000000023" height="30" as="alternateBounds" />
          </mxGeometry>
        </mxCell>
        <mxCell id="bKKYOeD4bFl_OBeaU6XK-96" value="" style="shape=tableRow;horizontal=0;startSize=0;swimlaneHead=0;swimlaneBody=0;fillColor=none;collapsible=0;dropTarget=0;points=[[0,0.5],[1,0.5]];portConstraint=eastwest;top=0;left=0;right=0;bottom=1;" parent="bKKYOeD4bFl_OBeaU6XK-92" vertex="1">
          <mxGeometry y="60" width="780.0000000000002" height="30" as="geometry" />
        </mxCell>
        <mxCell id="bKKYOeD4bFl_OBeaU6XK-97" value="" style="shape=partialRectangle;connectable=0;fillColor=none;top=0;left=0;bottom=0;right=0;editable=1;overflow=hidden;whiteSpace=wrap;html=1;" parent="bKKYOeD4bFl_OBeaU6XK-96" vertex="1">
          <mxGeometry width="30" height="30" as="geometry">
            <mxRectangle width="30" height="30" as="alternateBounds" />
          </mxGeometry>
        </mxCell>
        <mxCell id="bKKYOeD4bFl_OBeaU6XK-98" value="" style="shape=partialRectangle;connectable=0;fillColor=none;top=0;left=0;bottom=0;right=0;align=left;spacingLeft=6;overflow=hidden;whiteSpace=wrap;html=1;" parent="bKKYOeD4bFl_OBeaU6XK-96" vertex="1">
          <mxGeometry x="30" width="80" height="30" as="geometry">
            <mxRectangle width="80" height="30" as="alternateBounds" />
          </mxGeometry>
        </mxCell>
        <mxCell id="bKKYOeD4bFl_OBeaU6XK-229" value="&#xa;Ref: Room&#xa;&#xa;" style="shape=partialRectangle;connectable=0;fillColor=none;top=0;left=0;bottom=0;right=0;align=left;spacingLeft=6;overflow=hidden;whiteSpace=wrap;html=1;" parent="bKKYOeD4bFl_OBeaU6XK-96" vertex="1">
          <mxGeometry x="110" width="90" height="30" as="geometry">
            <mxRectangle width="90" height="30" as="alternateBounds" />
          </mxGeometry>
        </mxCell>
        <mxCell id="bKKYOeD4bFl_OBeaU6XK-233" style="shape=partialRectangle;connectable=0;fillColor=none;top=0;left=0;bottom=0;right=0;align=left;spacingLeft=6;overflow=hidden;whiteSpace=wrap;html=1;" parent="bKKYOeD4bFl_OBeaU6XK-96" vertex="1">
          <mxGeometry x="200" width="120" height="30" as="geometry">
            <mxRectangle width="120" height="30" as="alternateBounds" />
          </mxGeometry>
        </mxCell>
        <mxCell id="bKKYOeD4bFl_OBeaU6XK-237" value="Unique" style="shape=partialRectangle;connectable=0;fillColor=none;top=0;left=0;bottom=0;right=0;align=left;spacingLeft=6;overflow=hidden;whiteSpace=wrap;html=1;" parent="bKKYOeD4bFl_OBeaU6XK-96" vertex="1">
          <mxGeometry x="320" width="130" height="30" as="geometry">
            <mxRectangle width="130" height="30" as="alternateBounds" />
          </mxGeometry>
        </mxCell>
        <mxCell id="bKKYOeD4bFl_OBeaU6XK-241" value="Unique Ref: Mailing Address" style="shape=partialRectangle;connectable=0;fillColor=none;top=0;left=0;bottom=0;right=0;align=left;spacingLeft=6;overflow=hidden;whiteSpace=wrap;html=1;" parent="bKKYOeD4bFl_OBeaU6XK-96" vertex="1">
          <mxGeometry x="450" width="100.00000000000023" height="30" as="geometry">
            <mxRectangle width="100.00000000000023" height="30" as="alternateBounds" />
          </mxGeometry>
        </mxCell>
        <mxCell id="bKKYOeD4bFl_OBeaU6XK-245" value="Unique&lt;br&gt;" style="shape=partialRectangle;connectable=0;fillColor=none;top=0;left=0;bottom=0;right=0;align=left;spacingLeft=6;overflow=hidden;whiteSpace=wrap;html=1;" parent="bKKYOeD4bFl_OBeaU6XK-96" vertex="1">
          <mxGeometry x="550.0000000000002" width="139.99999999999977" height="30" as="geometry">
            <mxRectangle width="139.99999999999977" height="30" as="alternateBounds" />
          </mxGeometry>
        </mxCell>
        <mxCell id="bKKYOeD4bFl_OBeaU6XK-249" value="Ref: Employee" style="shape=partialRectangle;connectable=0;fillColor=none;top=0;left=0;bottom=0;right=0;align=left;spacingLeft=6;overflow=hidden;whiteSpace=wrap;html=1;" parent="bKKYOeD4bFl_OBeaU6XK-96" vertex="1">
          <mxGeometry x="690" width="90.00000000000023" height="30" as="geometry">
            <mxRectangle width="90.00000000000023" height="30" as="alternateBounds" />
          </mxGeometry>
        </mxCell>
        <mxCell id="bKKYOeD4bFl_OBeaU6XK-99" value="" style="shape=tableRow;horizontal=0;startSize=0;swimlaneHead=0;swimlaneBody=0;fillColor=none;collapsible=0;dropTarget=0;points=[[0,0.5],[1,0.5]];portConstraint=eastwest;top=0;left=0;right=0;bottom=0;" parent="bKKYOeD4bFl_OBeaU6XK-92" vertex="1">
          <mxGeometry y="90" width="780.0000000000002" height="30" as="geometry" />
        </mxCell>
        <mxCell id="bKKYOeD4bFl_OBeaU6XK-100" value="" style="shape=partialRectangle;connectable=0;fillColor=none;top=0;left=0;bottom=0;right=0;editable=1;overflow=hidden;whiteSpace=wrap;html=1;" parent="bKKYOeD4bFl_OBeaU6XK-99" vertex="1">
          <mxGeometry width="30" height="30" as="geometry">
            <mxRectangle width="30" height="30" as="alternateBounds" />
          </mxGeometry>
        </mxCell>
        <mxCell id="bKKYOeD4bFl_OBeaU6XK-101" value="" style="shape=partialRectangle;connectable=0;fillColor=none;top=0;left=0;bottom=0;right=0;align=left;spacingLeft=6;overflow=hidden;whiteSpace=wrap;html=1;" parent="bKKYOeD4bFl_OBeaU6XK-99" vertex="1">
          <mxGeometry x="30" width="80" height="30" as="geometry">
            <mxRectangle width="80" height="30" as="alternateBounds" />
          </mxGeometry>
        </mxCell>
        <mxCell id="bKKYOeD4bFl_OBeaU6XK-230" style="shape=partialRectangle;connectable=0;fillColor=none;top=0;left=0;bottom=0;right=0;align=left;spacingLeft=6;overflow=hidden;whiteSpace=wrap;html=1;" parent="bKKYOeD4bFl_OBeaU6XK-99" vertex="1">
          <mxGeometry x="110" width="90" height="30" as="geometry">
            <mxRectangle width="90" height="30" as="alternateBounds" />
          </mxGeometry>
        </mxCell>
        <mxCell id="bKKYOeD4bFl_OBeaU6XK-234" style="shape=partialRectangle;connectable=0;fillColor=none;top=0;left=0;bottom=0;right=0;align=left;spacingLeft=6;overflow=hidden;whiteSpace=wrap;html=1;" parent="bKKYOeD4bFl_OBeaU6XK-99" vertex="1">
          <mxGeometry x="200" width="120" height="30" as="geometry">
            <mxRectangle width="120" height="30" as="alternateBounds" />
          </mxGeometry>
        </mxCell>
        <mxCell id="bKKYOeD4bFl_OBeaU6XK-238" style="shape=partialRectangle;connectable=0;fillColor=none;top=0;left=0;bottom=0;right=0;align=left;spacingLeft=6;overflow=hidden;whiteSpace=wrap;html=1;" parent="bKKYOeD4bFl_OBeaU6XK-99" vertex="1">
          <mxGeometry x="320" width="130" height="30" as="geometry">
            <mxRectangle width="130" height="30" as="alternateBounds" />
          </mxGeometry>
        </mxCell>
        <mxCell id="bKKYOeD4bFl_OBeaU6XK-242" style="shape=partialRectangle;connectable=0;fillColor=none;top=0;left=0;bottom=0;right=0;align=left;spacingLeft=6;overflow=hidden;whiteSpace=wrap;html=1;" parent="bKKYOeD4bFl_OBeaU6XK-99" vertex="1">
          <mxGeometry x="450" width="100.00000000000023" height="30" as="geometry">
            <mxRectangle width="100.00000000000023" height="30" as="alternateBounds" />
          </mxGeometry>
        </mxCell>
        <mxCell id="bKKYOeD4bFl_OBeaU6XK-246" style="shape=partialRectangle;connectable=0;fillColor=none;top=0;left=0;bottom=0;right=0;align=left;spacingLeft=6;overflow=hidden;whiteSpace=wrap;html=1;" parent="bKKYOeD4bFl_OBeaU6XK-99" vertex="1">
          <mxGeometry x="550.0000000000002" width="139.99999999999977" height="30" as="geometry">
            <mxRectangle width="139.99999999999977" height="30" as="alternateBounds" />
          </mxGeometry>
        </mxCell>
        <mxCell id="bKKYOeD4bFl_OBeaU6XK-250" style="shape=partialRectangle;connectable=0;fillColor=none;top=0;left=0;bottom=0;right=0;align=left;spacingLeft=6;overflow=hidden;whiteSpace=wrap;html=1;" parent="bKKYOeD4bFl_OBeaU6XK-99" vertex="1">
          <mxGeometry x="690" width="90.00000000000023" height="30" as="geometry">
            <mxRectangle width="90.00000000000023" height="30" as="alternateBounds" />
          </mxGeometry>
        </mxCell>
        <mxCell id="bKKYOeD4bFl_OBeaU6XK-102" value="" style="shape=tableRow;horizontal=0;startSize=0;swimlaneHead=0;swimlaneBody=0;fillColor=none;collapsible=0;dropTarget=0;points=[[0,0.5],[1,0.5]];portConstraint=eastwest;top=0;left=0;right=0;bottom=0;" parent="bKKYOeD4bFl_OBeaU6XK-92" vertex="1">
          <mxGeometry y="120" width="780.0000000000002" height="30" as="geometry" />
        </mxCell>
        <mxCell id="bKKYOeD4bFl_OBeaU6XK-103" value="" style="shape=partialRectangle;connectable=0;fillColor=none;top=0;left=0;bottom=0;right=0;editable=1;overflow=hidden;whiteSpace=wrap;html=1;" parent="bKKYOeD4bFl_OBeaU6XK-102" vertex="1">
          <mxGeometry width="30" height="30" as="geometry">
            <mxRectangle width="30" height="30" as="alternateBounds" />
          </mxGeometry>
        </mxCell>
        <mxCell id="bKKYOeD4bFl_OBeaU6XK-104" value="" style="shape=partialRectangle;connectable=0;fillColor=none;top=0;left=0;bottom=0;right=0;align=left;spacingLeft=6;overflow=hidden;whiteSpace=wrap;html=1;" parent="bKKYOeD4bFl_OBeaU6XK-102" vertex="1">
          <mxGeometry x="30" width="80" height="30" as="geometry">
            <mxRectangle width="80" height="30" as="alternateBounds" />
          </mxGeometry>
        </mxCell>
        <mxCell id="bKKYOeD4bFl_OBeaU6XK-231" style="shape=partialRectangle;connectable=0;fillColor=none;top=0;left=0;bottom=0;right=0;align=left;spacingLeft=6;overflow=hidden;whiteSpace=wrap;html=1;" parent="bKKYOeD4bFl_OBeaU6XK-102" vertex="1">
          <mxGeometry x="110" width="90" height="30" as="geometry">
            <mxRectangle width="90" height="30" as="alternateBounds" />
          </mxGeometry>
        </mxCell>
        <mxCell id="bKKYOeD4bFl_OBeaU6XK-235" style="shape=partialRectangle;connectable=0;fillColor=none;top=0;left=0;bottom=0;right=0;align=left;spacingLeft=6;overflow=hidden;whiteSpace=wrap;html=1;" parent="bKKYOeD4bFl_OBeaU6XK-102" vertex="1">
          <mxGeometry x="200" width="120" height="30" as="geometry">
            <mxRectangle width="120" height="30" as="alternateBounds" />
          </mxGeometry>
        </mxCell>
        <mxCell id="bKKYOeD4bFl_OBeaU6XK-239" style="shape=partialRectangle;connectable=0;fillColor=none;top=0;left=0;bottom=0;right=0;align=left;spacingLeft=6;overflow=hidden;whiteSpace=wrap;html=1;" parent="bKKYOeD4bFl_OBeaU6XK-102" vertex="1">
          <mxGeometry x="320" width="130" height="30" as="geometry">
            <mxRectangle width="130" height="30" as="alternateBounds" />
          </mxGeometry>
        </mxCell>
        <mxCell id="bKKYOeD4bFl_OBeaU6XK-243" style="shape=partialRectangle;connectable=0;fillColor=none;top=0;left=0;bottom=0;right=0;align=left;spacingLeft=6;overflow=hidden;whiteSpace=wrap;html=1;" parent="bKKYOeD4bFl_OBeaU6XK-102" vertex="1">
          <mxGeometry x="450" width="100.00000000000023" height="30" as="geometry">
            <mxRectangle width="100.00000000000023" height="30" as="alternateBounds" />
          </mxGeometry>
        </mxCell>
        <mxCell id="bKKYOeD4bFl_OBeaU6XK-247" style="shape=partialRectangle;connectable=0;fillColor=none;top=0;left=0;bottom=0;right=0;align=left;spacingLeft=6;overflow=hidden;whiteSpace=wrap;html=1;" parent="bKKYOeD4bFl_OBeaU6XK-102" vertex="1">
          <mxGeometry x="550.0000000000002" width="139.99999999999977" height="30" as="geometry">
            <mxRectangle width="139.99999999999977" height="30" as="alternateBounds" />
          </mxGeometry>
        </mxCell>
        <mxCell id="bKKYOeD4bFl_OBeaU6XK-251" style="shape=partialRectangle;connectable=0;fillColor=none;top=0;left=0;bottom=0;right=0;align=left;spacingLeft=6;overflow=hidden;whiteSpace=wrap;html=1;" parent="bKKYOeD4bFl_OBeaU6XK-102" vertex="1">
          <mxGeometry x="690" width="90.00000000000023" height="30" as="geometry">
            <mxRectangle width="90.00000000000023" height="30" as="alternateBounds" />
          </mxGeometry>
        </mxCell>
        <mxCell id="bKKYOeD4bFl_OBeaU6XK-144" value="&lt;u&gt;RELATIONAL MODEL ASSUMPTIONS&lt;/u&gt;" style="text;html=1;align=center;verticalAlign=middle;resizable=0;points=[];autosize=1;strokeColor=none;fillColor=none;" parent="1" vertex="1">
          <mxGeometry x="165" y="1120" width="230" height="30" as="geometry" />
        </mxCell>
        <mxCell id="bKKYOeD4bFl_OBeaU6XK-146" value="If a header is underlined and not specified as the primary key, it doesn&#39;t mean anything &lt;br&gt;I just couldn&#39;t get them to stop being underlined. Foreign keys will be made clear" style="text;html=1;align=center;verticalAlign=middle;resizable=0;points=[];autosize=1;strokeColor=none;fillColor=none;" parent="1" vertex="1">
          <mxGeometry x="20" y="1155" width="490" height="40" as="geometry" />
        </mxCell>
        <mxCell id="bKKYOeD4bFl_OBeaU6XK-199" value="Each employee will hava a table of room IDs they are associated with + the building (aka, which rooms they are assigned to)." style="text;html=1;align=center;verticalAlign=middle;resizable=0;points=[];autosize=1;strokeColor=none;fillColor=none;" parent="1" vertex="1">
          <mxGeometry x="20" y="1198" width="700" height="30" as="geometry" />
        </mxCell>
        <mxCell id="bKKYOeD4bFl_OBeaU6XK-220" value="Use 1 of rooms contains the following options: Lab, Office, Conference, Department" style="text;html=1;align=center;verticalAlign=middle;resizable=0;points=[];autosize=1;strokeColor=none;fillColor=none;" parent="1" vertex="1">
          <mxGeometry x="40" y="1228" width="480" height="30" as="geometry" />
        </mxCell>
        <mxCell id="bKKYOeD4bFl_OBeaU6XK-221" value="Use 2 of rooms contains the same as 1, but with the addition of NONE and the removal of &quot;department&quot;" style="text;html=1;align=center;verticalAlign=middle;resizable=0;points=[];autosize=1;strokeColor=none;fillColor=none;" parent="1" vertex="1">
          <mxGeometry x="38.96" y="1250" width="580" height="30" as="geometry" />
        </mxCell>
        <mxCell id="bKKYOeD4bFl_OBeaU6XK-275" value="Measurements" style="shape=table;startSize=30;container=1;collapsible=1;childLayout=tableLayout;fixedRows=1;rowLines=0;fontStyle=1;align=center;resizeLast=1;html=1;" parent="1" vertex="1">
          <mxGeometry x="19.999999999999993" y="2250" width="800" height="150" as="geometry" />
        </mxCell>
        <mxCell id="bKKYOeD4bFl_OBeaU6XK-276" value="" style="shape=tableRow;horizontal=0;startSize=0;swimlaneHead=0;swimlaneBody=0;fillColor=none;collapsible=0;dropTarget=0;points=[[0,0.5],[1,0.5]];portConstraint=eastwest;top=0;left=0;right=0;bottom=1;" parent="bKKYOeD4bFl_OBeaU6XK-275" vertex="1">
          <mxGeometry y="30" width="800" height="30" as="geometry" />
        </mxCell>
        <mxCell id="bKKYOeD4bFl_OBeaU6XK-277" value="PK" style="shape=partialRectangle;connectable=0;fillColor=none;top=0;left=0;bottom=0;right=0;fontStyle=1;overflow=hidden;whiteSpace=wrap;html=1;" parent="bKKYOeD4bFl_OBeaU6XK-276" vertex="1">
          <mxGeometry width="30" height="30" as="geometry">
            <mxRectangle width="30" height="30" as="alternateBounds" />
          </mxGeometry>
        </mxCell>
        <mxCell id="bKKYOeD4bFl_OBeaU6XK-278" value="&lt;font style=&quot;font-size: 9px;&quot;&gt;Room Number (int)&lt;/font&gt;" style="shape=partialRectangle;connectable=0;fillColor=none;top=0;left=0;bottom=0;right=0;align=left;spacingLeft=6;fontStyle=5;overflow=hidden;whiteSpace=wrap;html=1;" parent="bKKYOeD4bFl_OBeaU6XK-276" vertex="1">
          <mxGeometry x="30" width="70" height="30" as="geometry">
            <mxRectangle width="70" height="30" as="alternateBounds" />
          </mxGeometry>
        </mxCell>
        <mxCell id="SNrVMuQwNA9T67Mmig9U-22" value="&lt;font style=&quot;font-size: 8px;&quot;&gt;Building Name (string)&lt;/font&gt;" style="shape=partialRectangle;connectable=0;fillColor=none;top=0;left=0;bottom=0;right=0;align=left;spacingLeft=6;fontStyle=5;overflow=hidden;whiteSpace=wrap;html=1;" vertex="1" parent="bKKYOeD4bFl_OBeaU6XK-276">
          <mxGeometry x="100" width="70" height="30" as="geometry">
            <mxRectangle width="70" height="30" as="alternateBounds" />
          </mxGeometry>
        </mxCell>
        <mxCell id="bKKYOeD4bFl_OBeaU6XK-292" value="&lt;font style=&quot;font-size: 11px;&quot;&gt;&lt;b&gt;Time:HHMMSS&lt;/b&gt;&lt;/font&gt;&lt;div style=&quot;font-size: 9px;&quot;&gt;&lt;font style=&quot;font-size: 9px;&quot;&gt;&lt;b&gt;&lt;span style=&quot;&quot;&gt;&lt;/span&gt;(int, 24hr clock format)&lt;/b&gt;&lt;/font&gt;&lt;/div&gt;" style="shape=partialRectangle;connectable=0;fillColor=none;top=0;left=0;bottom=0;right=0;align=left;spacingLeft=6;fontStyle=5;overflow=hidden;whiteSpace=wrap;html=1;" parent="bKKYOeD4bFl_OBeaU6XK-276" vertex="1">
          <mxGeometry x="170" width="130" height="30" as="geometry">
            <mxRectangle width="130" height="30" as="alternateBounds" />
          </mxGeometry>
        </mxCell>
        <mxCell id="bKKYOeD4bFl_OBeaU6XK-288" value="&lt;font style=&quot;font-size: 9px;&quot;&gt;&lt;b&gt;Date:DDMMYYYY&lt;br&gt;&lt;span style=&quot;&quot;&gt;&lt;/span&gt;(int)&lt;/b&gt;&lt;/font&gt;" style="shape=partialRectangle;connectable=0;fillColor=none;top=0;left=0;bottom=0;right=0;align=left;spacingLeft=6;fontStyle=5;overflow=hidden;whiteSpace=wrap;html=1;" parent="bKKYOeD4bFl_OBeaU6XK-276" vertex="1">
          <mxGeometry x="300" width="100" height="30" as="geometry">
            <mxRectangle width="100" height="30" as="alternateBounds" />
          </mxGeometry>
        </mxCell>
        <mxCell id="bKKYOeD4bFl_OBeaU6XK-296" value="&lt;font style=&quot;font-size: 9px;&quot;&gt;Temperature (float)&lt;/font&gt;" style="shape=partialRectangle;connectable=0;fillColor=none;top=0;left=0;bottom=0;right=0;align=left;spacingLeft=6;fontStyle=5;overflow=hidden;whiteSpace=wrap;html=1;" parent="bKKYOeD4bFl_OBeaU6XK-276" vertex="1">
          <mxGeometry x="400" width="100" height="30" as="geometry">
            <mxRectangle width="100" height="30" as="alternateBounds" />
          </mxGeometry>
        </mxCell>
        <mxCell id="bKKYOeD4bFl_OBeaU6XK-300" value="&lt;font style=&quot;font-size: 9px;&quot;&gt;Semester (String)&lt;/font&gt;" style="shape=partialRectangle;connectable=0;fillColor=none;top=0;left=0;bottom=0;right=0;align=left;spacingLeft=6;fontStyle=5;overflow=hidden;whiteSpace=wrap;html=1;" parent="bKKYOeD4bFl_OBeaU6XK-276" vertex="1">
          <mxGeometry x="500" width="90" height="30" as="geometry">
            <mxRectangle width="90" height="30" as="alternateBounds" />
          </mxGeometry>
        </mxCell>
        <mxCell id="bKKYOeD4bFl_OBeaU6XK-304" value="&lt;font style=&quot;font-size: 9px;&quot;&gt;Sound Level:db (int)&lt;/font&gt;" style="shape=partialRectangle;connectable=0;fillColor=none;top=0;left=0;bottom=0;right=0;align=left;spacingLeft=6;fontStyle=5;overflow=hidden;whiteSpace=wrap;html=1;" parent="bKKYOeD4bFl_OBeaU6XK-276" vertex="1">
          <mxGeometry x="590" width="110" height="30" as="geometry">
            <mxRectangle width="110" height="30" as="alternateBounds" />
          </mxGeometry>
        </mxCell>
        <mxCell id="bKKYOeD4bFl_OBeaU6XK-308" value="&lt;font style=&quot;font-size: 9px;&quot;&gt;Light Level:Lux (int)&lt;/font&gt;" style="shape=partialRectangle;connectable=0;fillColor=none;top=0;left=0;bottom=0;right=0;align=left;spacingLeft=6;fontStyle=5;overflow=hidden;whiteSpace=wrap;html=1;" parent="bKKYOeD4bFl_OBeaU6XK-276" vertex="1">
          <mxGeometry x="700" width="100" height="30" as="geometry">
            <mxRectangle width="100" height="30" as="alternateBounds" />
          </mxGeometry>
        </mxCell>
        <mxCell id="bKKYOeD4bFl_OBeaU6XK-279" value="" style="shape=tableRow;horizontal=0;startSize=0;swimlaneHead=0;swimlaneBody=0;fillColor=none;collapsible=0;dropTarget=0;points=[[0,0.5],[1,0.5]];portConstraint=eastwest;top=0;left=0;right=0;bottom=1;" parent="bKKYOeD4bFl_OBeaU6XK-275" vertex="1">
          <mxGeometry y="60" width="800" height="30" as="geometry" />
        </mxCell>
        <mxCell id="bKKYOeD4bFl_OBeaU6XK-280" value="" style="shape=partialRectangle;connectable=0;fillColor=none;top=0;left=0;bottom=0;right=0;editable=1;overflow=hidden;whiteSpace=wrap;html=1;" parent="bKKYOeD4bFl_OBeaU6XK-279" vertex="1">
          <mxGeometry width="30" height="30" as="geometry">
            <mxRectangle width="30" height="30" as="alternateBounds" />
          </mxGeometry>
        </mxCell>
        <mxCell id="bKKYOeD4bFl_OBeaU6XK-281" value="pk,fk" style="shape=partialRectangle;connectable=0;fillColor=none;top=0;left=0;bottom=0;right=0;align=left;spacingLeft=6;overflow=hidden;whiteSpace=wrap;html=1;" parent="bKKYOeD4bFl_OBeaU6XK-279" vertex="1">
          <mxGeometry x="30" width="70" height="30" as="geometry">
            <mxRectangle width="70" height="30" as="alternateBounds" />
          </mxGeometry>
        </mxCell>
        <mxCell id="SNrVMuQwNA9T67Mmig9U-23" value="pk,fk" style="shape=partialRectangle;connectable=0;fillColor=none;top=0;left=0;bottom=0;right=0;align=left;spacingLeft=6;overflow=hidden;whiteSpace=wrap;html=1;" vertex="1" parent="bKKYOeD4bFl_OBeaU6XK-279">
          <mxGeometry x="100" width="70" height="30" as="geometry">
            <mxRectangle width="70" height="30" as="alternateBounds" />
          </mxGeometry>
        </mxCell>
        <mxCell id="bKKYOeD4bFl_OBeaU6XK-293" value="&lt;font style=&quot;font-size: 9px;&quot;&gt;Unique&lt;/font&gt;" style="shape=partialRectangle;connectable=0;fillColor=none;top=0;left=0;bottom=0;right=0;align=left;spacingLeft=6;overflow=hidden;whiteSpace=wrap;html=1;" parent="bKKYOeD4bFl_OBeaU6XK-279" vertex="1">
          <mxGeometry x="170" width="130" height="30" as="geometry">
            <mxRectangle width="130" height="30" as="alternateBounds" />
          </mxGeometry>
        </mxCell>
        <mxCell id="bKKYOeD4bFl_OBeaU6XK-289" value="&lt;font style=&quot;font-size: 9px;&quot;&gt;Unique&lt;/font&gt;" style="shape=partialRectangle;connectable=0;fillColor=none;top=0;left=0;bottom=0;right=0;align=left;spacingLeft=6;overflow=hidden;whiteSpace=wrap;html=1;" parent="bKKYOeD4bFl_OBeaU6XK-279" vertex="1">
          <mxGeometry x="300" width="100" height="30" as="geometry">
            <mxRectangle width="100" height="30" as="alternateBounds" />
          </mxGeometry>
        </mxCell>
        <mxCell id="bKKYOeD4bFl_OBeaU6XK-297" style="shape=partialRectangle;connectable=0;fillColor=none;top=0;left=0;bottom=0;right=0;align=left;spacingLeft=6;overflow=hidden;whiteSpace=wrap;html=1;" parent="bKKYOeD4bFl_OBeaU6XK-279" vertex="1">
          <mxGeometry x="400" width="100" height="30" as="geometry">
            <mxRectangle width="100" height="30" as="alternateBounds" />
          </mxGeometry>
        </mxCell>
        <mxCell id="bKKYOeD4bFl_OBeaU6XK-301" style="shape=partialRectangle;connectable=0;fillColor=none;top=0;left=0;bottom=0;right=0;align=left;spacingLeft=6;overflow=hidden;whiteSpace=wrap;html=1;" parent="bKKYOeD4bFl_OBeaU6XK-279" vertex="1">
          <mxGeometry x="500" width="90" height="30" as="geometry">
            <mxRectangle width="90" height="30" as="alternateBounds" />
          </mxGeometry>
        </mxCell>
        <mxCell id="bKKYOeD4bFl_OBeaU6XK-305" style="shape=partialRectangle;connectable=0;fillColor=none;top=0;left=0;bottom=0;right=0;align=left;spacingLeft=6;overflow=hidden;whiteSpace=wrap;html=1;" parent="bKKYOeD4bFl_OBeaU6XK-279" vertex="1">
          <mxGeometry x="590" width="110" height="30" as="geometry">
            <mxRectangle width="110" height="30" as="alternateBounds" />
          </mxGeometry>
        </mxCell>
        <mxCell id="bKKYOeD4bFl_OBeaU6XK-309" style="shape=partialRectangle;connectable=0;fillColor=none;top=0;left=0;bottom=0;right=0;align=left;spacingLeft=6;overflow=hidden;whiteSpace=wrap;html=1;" parent="bKKYOeD4bFl_OBeaU6XK-279" vertex="1">
          <mxGeometry x="700" width="100" height="30" as="geometry">
            <mxRectangle width="100" height="30" as="alternateBounds" />
          </mxGeometry>
        </mxCell>
        <mxCell id="bKKYOeD4bFl_OBeaU6XK-282" value="" style="shape=tableRow;horizontal=0;startSize=0;swimlaneHead=0;swimlaneBody=0;fillColor=none;collapsible=0;dropTarget=0;points=[[0,0.5],[1,0.5]];portConstraint=eastwest;top=0;left=0;right=0;bottom=0;" parent="bKKYOeD4bFl_OBeaU6XK-275" vertex="1">
          <mxGeometry y="90" width="800" height="30" as="geometry" />
        </mxCell>
        <mxCell id="bKKYOeD4bFl_OBeaU6XK-283" value="" style="shape=partialRectangle;connectable=0;fillColor=none;top=0;left=0;bottom=0;right=0;editable=1;overflow=hidden;whiteSpace=wrap;html=1;" parent="bKKYOeD4bFl_OBeaU6XK-282" vertex="1">
          <mxGeometry width="30" height="30" as="geometry">
            <mxRectangle width="30" height="30" as="alternateBounds" />
          </mxGeometry>
        </mxCell>
        <mxCell id="bKKYOeD4bFl_OBeaU6XK-284" value="" style="shape=partialRectangle;connectable=0;fillColor=none;top=0;left=0;bottom=0;right=0;align=left;spacingLeft=6;overflow=hidden;whiteSpace=wrap;html=1;" parent="bKKYOeD4bFl_OBeaU6XK-282" vertex="1">
          <mxGeometry x="30" width="70" height="30" as="geometry">
            <mxRectangle width="70" height="30" as="alternateBounds" />
          </mxGeometry>
        </mxCell>
        <mxCell id="SNrVMuQwNA9T67Mmig9U-24" style="shape=partialRectangle;connectable=0;fillColor=none;top=0;left=0;bottom=0;right=0;align=left;spacingLeft=6;overflow=hidden;whiteSpace=wrap;html=1;" vertex="1" parent="bKKYOeD4bFl_OBeaU6XK-282">
          <mxGeometry x="100" width="70" height="30" as="geometry">
            <mxRectangle width="70" height="30" as="alternateBounds" />
          </mxGeometry>
        </mxCell>
        <mxCell id="bKKYOeD4bFl_OBeaU6XK-294" style="shape=partialRectangle;connectable=0;fillColor=none;top=0;left=0;bottom=0;right=0;align=left;spacingLeft=6;overflow=hidden;whiteSpace=wrap;html=1;" parent="bKKYOeD4bFl_OBeaU6XK-282" vertex="1">
          <mxGeometry x="170" width="130" height="30" as="geometry">
            <mxRectangle width="130" height="30" as="alternateBounds" />
          </mxGeometry>
        </mxCell>
        <mxCell id="bKKYOeD4bFl_OBeaU6XK-290" style="shape=partialRectangle;connectable=0;fillColor=none;top=0;left=0;bottom=0;right=0;align=left;spacingLeft=6;overflow=hidden;whiteSpace=wrap;html=1;" parent="bKKYOeD4bFl_OBeaU6XK-282" vertex="1">
          <mxGeometry x="300" width="100" height="30" as="geometry">
            <mxRectangle width="100" height="30" as="alternateBounds" />
          </mxGeometry>
        </mxCell>
        <mxCell id="bKKYOeD4bFl_OBeaU6XK-298" style="shape=partialRectangle;connectable=0;fillColor=none;top=0;left=0;bottom=0;right=0;align=left;spacingLeft=6;overflow=hidden;whiteSpace=wrap;html=1;" parent="bKKYOeD4bFl_OBeaU6XK-282" vertex="1">
          <mxGeometry x="400" width="100" height="30" as="geometry">
            <mxRectangle width="100" height="30" as="alternateBounds" />
          </mxGeometry>
        </mxCell>
        <mxCell id="bKKYOeD4bFl_OBeaU6XK-302" style="shape=partialRectangle;connectable=0;fillColor=none;top=0;left=0;bottom=0;right=0;align=left;spacingLeft=6;overflow=hidden;whiteSpace=wrap;html=1;" parent="bKKYOeD4bFl_OBeaU6XK-282" vertex="1">
          <mxGeometry x="500" width="90" height="30" as="geometry">
            <mxRectangle width="90" height="30" as="alternateBounds" />
          </mxGeometry>
        </mxCell>
        <mxCell id="bKKYOeD4bFl_OBeaU6XK-306" style="shape=partialRectangle;connectable=0;fillColor=none;top=0;left=0;bottom=0;right=0;align=left;spacingLeft=6;overflow=hidden;whiteSpace=wrap;html=1;" parent="bKKYOeD4bFl_OBeaU6XK-282" vertex="1">
          <mxGeometry x="590" width="110" height="30" as="geometry">
            <mxRectangle width="110" height="30" as="alternateBounds" />
          </mxGeometry>
        </mxCell>
        <mxCell id="bKKYOeD4bFl_OBeaU6XK-310" style="shape=partialRectangle;connectable=0;fillColor=none;top=0;left=0;bottom=0;right=0;align=left;spacingLeft=6;overflow=hidden;whiteSpace=wrap;html=1;" parent="bKKYOeD4bFl_OBeaU6XK-282" vertex="1">
          <mxGeometry x="700" width="100" height="30" as="geometry">
            <mxRectangle width="100" height="30" as="alternateBounds" />
          </mxGeometry>
        </mxCell>
        <mxCell id="bKKYOeD4bFl_OBeaU6XK-285" value="" style="shape=tableRow;horizontal=0;startSize=0;swimlaneHead=0;swimlaneBody=0;fillColor=none;collapsible=0;dropTarget=0;points=[[0,0.5],[1,0.5]];portConstraint=eastwest;top=0;left=0;right=0;bottom=0;" parent="bKKYOeD4bFl_OBeaU6XK-275" vertex="1">
          <mxGeometry y="120" width="800" height="30" as="geometry" />
        </mxCell>
        <mxCell id="bKKYOeD4bFl_OBeaU6XK-286" value="" style="shape=partialRectangle;connectable=0;fillColor=none;top=0;left=0;bottom=0;right=0;editable=1;overflow=hidden;whiteSpace=wrap;html=1;" parent="bKKYOeD4bFl_OBeaU6XK-285" vertex="1">
          <mxGeometry width="30" height="30" as="geometry">
            <mxRectangle width="30" height="30" as="alternateBounds" />
          </mxGeometry>
        </mxCell>
        <mxCell id="bKKYOeD4bFl_OBeaU6XK-287" value="" style="shape=partialRectangle;connectable=0;fillColor=none;top=0;left=0;bottom=0;right=0;align=left;spacingLeft=6;overflow=hidden;whiteSpace=wrap;html=1;" parent="bKKYOeD4bFl_OBeaU6XK-285" vertex="1">
          <mxGeometry x="30" width="70" height="30" as="geometry">
            <mxRectangle width="70" height="30" as="alternateBounds" />
          </mxGeometry>
        </mxCell>
        <mxCell id="SNrVMuQwNA9T67Mmig9U-25" style="shape=partialRectangle;connectable=0;fillColor=none;top=0;left=0;bottom=0;right=0;align=left;spacingLeft=6;overflow=hidden;whiteSpace=wrap;html=1;" vertex="1" parent="bKKYOeD4bFl_OBeaU6XK-285">
          <mxGeometry x="100" width="70" height="30" as="geometry">
            <mxRectangle width="70" height="30" as="alternateBounds" />
          </mxGeometry>
        </mxCell>
        <mxCell id="bKKYOeD4bFl_OBeaU6XK-295" style="shape=partialRectangle;connectable=0;fillColor=none;top=0;left=0;bottom=0;right=0;align=left;spacingLeft=6;overflow=hidden;whiteSpace=wrap;html=1;" parent="bKKYOeD4bFl_OBeaU6XK-285" vertex="1">
          <mxGeometry x="170" width="130" height="30" as="geometry">
            <mxRectangle width="130" height="30" as="alternateBounds" />
          </mxGeometry>
        </mxCell>
        <mxCell id="bKKYOeD4bFl_OBeaU6XK-291" style="shape=partialRectangle;connectable=0;fillColor=none;top=0;left=0;bottom=0;right=0;align=left;spacingLeft=6;overflow=hidden;whiteSpace=wrap;html=1;" parent="bKKYOeD4bFl_OBeaU6XK-285" vertex="1">
          <mxGeometry x="300" width="100" height="30" as="geometry">
            <mxRectangle width="100" height="30" as="alternateBounds" />
          </mxGeometry>
        </mxCell>
        <mxCell id="bKKYOeD4bFl_OBeaU6XK-299" style="shape=partialRectangle;connectable=0;fillColor=none;top=0;left=0;bottom=0;right=0;align=left;spacingLeft=6;overflow=hidden;whiteSpace=wrap;html=1;" parent="bKKYOeD4bFl_OBeaU6XK-285" vertex="1">
          <mxGeometry x="400" width="100" height="30" as="geometry">
            <mxRectangle width="100" height="30" as="alternateBounds" />
          </mxGeometry>
        </mxCell>
        <mxCell id="bKKYOeD4bFl_OBeaU6XK-303" style="shape=partialRectangle;connectable=0;fillColor=none;top=0;left=0;bottom=0;right=0;align=left;spacingLeft=6;overflow=hidden;whiteSpace=wrap;html=1;" parent="bKKYOeD4bFl_OBeaU6XK-285" vertex="1">
          <mxGeometry x="500" width="90" height="30" as="geometry">
            <mxRectangle width="90" height="30" as="alternateBounds" />
          </mxGeometry>
        </mxCell>
        <mxCell id="bKKYOeD4bFl_OBeaU6XK-307" style="shape=partialRectangle;connectable=0;fillColor=none;top=0;left=0;bottom=0;right=0;align=left;spacingLeft=6;overflow=hidden;whiteSpace=wrap;html=1;" parent="bKKYOeD4bFl_OBeaU6XK-285" vertex="1">
          <mxGeometry x="590" width="110" height="30" as="geometry">
            <mxRectangle width="110" height="30" as="alternateBounds" />
          </mxGeometry>
        </mxCell>
        <mxCell id="bKKYOeD4bFl_OBeaU6XK-311" style="shape=partialRectangle;connectable=0;fillColor=none;top=0;left=0;bottom=0;right=0;align=left;spacingLeft=6;overflow=hidden;whiteSpace=wrap;html=1;" parent="bKKYOeD4bFl_OBeaU6XK-285" vertex="1">
          <mxGeometry x="700" width="100" height="30" as="geometry">
            <mxRectangle width="100" height="30" as="alternateBounds" />
          </mxGeometry>
        </mxCell>
        <mxCell id="bKKYOeD4bFl_OBeaU6XK-312" value="Mailing Address" style="shape=table;startSize=30;container=1;collapsible=1;childLayout=tableLayout;fixedRows=1;rowLines=0;fontStyle=1;align=center;resizeLast=1;html=1;" parent="1" vertex="1">
          <mxGeometry x="198.96" y="2780" width="505" height="140" as="geometry" />
        </mxCell>
        <mxCell id="bKKYOeD4bFl_OBeaU6XK-313" value="" style="shape=tableRow;horizontal=0;startSize=0;swimlaneHead=0;swimlaneBody=0;fillColor=none;collapsible=0;dropTarget=0;points=[[0,0.5],[1,0.5]];portConstraint=eastwest;top=0;left=0;right=0;bottom=1;" parent="bKKYOeD4bFl_OBeaU6XK-312" vertex="1">
          <mxGeometry y="30" width="505" height="30" as="geometry" />
        </mxCell>
        <mxCell id="bKKYOeD4bFl_OBeaU6XK-314" value="PK" style="shape=partialRectangle;connectable=0;fillColor=none;top=0;left=0;bottom=0;right=0;fontStyle=1;overflow=hidden;whiteSpace=wrap;html=1;" parent="bKKYOeD4bFl_OBeaU6XK-313" vertex="1">
          <mxGeometry width="30" height="30" as="geometry">
            <mxRectangle width="30" height="30" as="alternateBounds" />
          </mxGeometry>
        </mxCell>
        <mxCell id="bKKYOeD4bFl_OBeaU6XK-315" value="" style="shape=partialRectangle;connectable=0;fillColor=none;top=0;left=0;bottom=0;right=0;align=left;spacingLeft=6;fontStyle=5;overflow=hidden;whiteSpace=wrap;html=1;" parent="bKKYOeD4bFl_OBeaU6XK-313" vertex="1">
          <mxGeometry x="30" width="65" height="30" as="geometry">
            <mxRectangle width="65" height="30" as="alternateBounds" />
          </mxGeometry>
        </mxCell>
        <mxCell id="bKKYOeD4bFl_OBeaU6XK-325" value="Street Address (String)" style="shape=partialRectangle;connectable=0;fillColor=none;top=0;left=0;bottom=0;right=0;align=left;spacingLeft=6;fontStyle=5;overflow=hidden;whiteSpace=wrap;html=1;" parent="bKKYOeD4bFl_OBeaU6XK-313" vertex="1">
          <mxGeometry x="95" width="150" height="30" as="geometry">
            <mxRectangle width="150" height="30" as="alternateBounds" />
          </mxGeometry>
        </mxCell>
        <mxCell id="bKKYOeD4bFl_OBeaU6XK-329" value="City (String)" style="shape=partialRectangle;connectable=0;fillColor=none;top=0;left=0;bottom=0;right=0;align=left;spacingLeft=6;fontStyle=5;overflow=hidden;whiteSpace=wrap;html=1;" parent="bKKYOeD4bFl_OBeaU6XK-313" vertex="1">
          <mxGeometry x="245" width="80" height="30" as="geometry">
            <mxRectangle width="80" height="30" as="alternateBounds" />
          </mxGeometry>
        </mxCell>
        <mxCell id="bKKYOeD4bFl_OBeaU6XK-333" value="State (String)" style="shape=partialRectangle;connectable=0;fillColor=none;top=0;left=0;bottom=0;right=0;align=left;spacingLeft=6;fontStyle=5;overflow=hidden;whiteSpace=wrap;html=1;" parent="bKKYOeD4bFl_OBeaU6XK-313" vertex="1">
          <mxGeometry x="325" width="90" height="30" as="geometry">
            <mxRectangle width="90" height="30" as="alternateBounds" />
          </mxGeometry>
        </mxCell>
        <mxCell id="bKKYOeD4bFl_OBeaU6XK-337" value="Zip Code (Int)" style="shape=partialRectangle;connectable=0;fillColor=none;top=0;left=0;bottom=0;right=0;align=left;spacingLeft=6;fontStyle=5;overflow=hidden;whiteSpace=wrap;html=1;" parent="bKKYOeD4bFl_OBeaU6XK-313" vertex="1">
          <mxGeometry x="415" width="90" height="30" as="geometry">
            <mxRectangle width="90" height="30" as="alternateBounds" />
          </mxGeometry>
        </mxCell>
        <mxCell id="bKKYOeD4bFl_OBeaU6XK-316" value="" style="shape=tableRow;horizontal=0;startSize=0;swimlaneHead=0;swimlaneBody=0;fillColor=none;collapsible=0;dropTarget=0;points=[[0,0.5],[1,0.5]];portConstraint=eastwest;top=0;left=0;right=0;bottom=0;" parent="bKKYOeD4bFl_OBeaU6XK-312" vertex="1">
          <mxGeometry y="60" width="505" height="20" as="geometry" />
        </mxCell>
        <mxCell id="bKKYOeD4bFl_OBeaU6XK-317" value="" style="shape=partialRectangle;connectable=0;fillColor=none;top=0;left=0;bottom=0;right=0;editable=1;overflow=hidden;whiteSpace=wrap;html=1;" parent="bKKYOeD4bFl_OBeaU6XK-316" vertex="1">
          <mxGeometry width="30" height="20" as="geometry">
            <mxRectangle width="30" height="20" as="alternateBounds" />
          </mxGeometry>
        </mxCell>
        <mxCell id="bKKYOeD4bFl_OBeaU6XK-318" value="" style="shape=partialRectangle;connectable=0;fillColor=none;top=0;left=0;bottom=0;right=0;align=left;spacingLeft=6;overflow=hidden;whiteSpace=wrap;html=1;" parent="bKKYOeD4bFl_OBeaU6XK-316" vertex="1">
          <mxGeometry x="30" width="65" height="20" as="geometry">
            <mxRectangle width="65" height="20" as="alternateBounds" />
          </mxGeometry>
        </mxCell>
        <mxCell id="bKKYOeD4bFl_OBeaU6XK-326" style="shape=partialRectangle;connectable=0;fillColor=none;top=0;left=0;bottom=0;right=0;align=left;spacingLeft=6;overflow=hidden;whiteSpace=wrap;html=1;" parent="bKKYOeD4bFl_OBeaU6XK-316" vertex="1">
          <mxGeometry x="95" width="150" height="20" as="geometry">
            <mxRectangle width="150" height="20" as="alternateBounds" />
          </mxGeometry>
        </mxCell>
        <mxCell id="bKKYOeD4bFl_OBeaU6XK-330" style="shape=partialRectangle;connectable=0;fillColor=none;top=0;left=0;bottom=0;right=0;align=left;spacingLeft=6;overflow=hidden;whiteSpace=wrap;html=1;" parent="bKKYOeD4bFl_OBeaU6XK-316" vertex="1">
          <mxGeometry x="245" width="80" height="20" as="geometry">
            <mxRectangle width="80" height="20" as="alternateBounds" />
          </mxGeometry>
        </mxCell>
        <mxCell id="bKKYOeD4bFl_OBeaU6XK-334" style="shape=partialRectangle;connectable=0;fillColor=none;top=0;left=0;bottom=0;right=0;align=left;spacingLeft=6;overflow=hidden;whiteSpace=wrap;html=1;" parent="bKKYOeD4bFl_OBeaU6XK-316" vertex="1">
          <mxGeometry x="325" width="90" height="20" as="geometry">
            <mxRectangle width="90" height="20" as="alternateBounds" />
          </mxGeometry>
        </mxCell>
        <mxCell id="bKKYOeD4bFl_OBeaU6XK-338" style="shape=partialRectangle;connectable=0;fillColor=none;top=0;left=0;bottom=0;right=0;align=left;spacingLeft=6;overflow=hidden;whiteSpace=wrap;html=1;" parent="bKKYOeD4bFl_OBeaU6XK-316" vertex="1">
          <mxGeometry x="415" width="90" height="20" as="geometry">
            <mxRectangle width="90" height="20" as="alternateBounds" />
          </mxGeometry>
        </mxCell>
        <mxCell id="bKKYOeD4bFl_OBeaU6XK-319" value="" style="shape=tableRow;horizontal=0;startSize=0;swimlaneHead=0;swimlaneBody=0;fillColor=none;collapsible=0;dropTarget=0;points=[[0,0.5],[1,0.5]];portConstraint=eastwest;top=0;left=0;right=0;bottom=0;" parent="bKKYOeD4bFl_OBeaU6XK-312" vertex="1">
          <mxGeometry y="80" width="505" height="30" as="geometry" />
        </mxCell>
        <mxCell id="bKKYOeD4bFl_OBeaU6XK-320" value="" style="shape=partialRectangle;connectable=0;fillColor=none;top=0;left=0;bottom=0;right=0;editable=1;overflow=hidden;whiteSpace=wrap;html=1;" parent="bKKYOeD4bFl_OBeaU6XK-319" vertex="1">
          <mxGeometry width="30" height="30" as="geometry">
            <mxRectangle width="30" height="30" as="alternateBounds" />
          </mxGeometry>
        </mxCell>
        <mxCell id="bKKYOeD4bFl_OBeaU6XK-321" value="" style="shape=partialRectangle;connectable=0;fillColor=none;top=0;left=0;bottom=0;right=0;align=left;spacingLeft=6;overflow=hidden;whiteSpace=wrap;html=1;" parent="bKKYOeD4bFl_OBeaU6XK-319" vertex="1">
          <mxGeometry x="30" width="65" height="30" as="geometry">
            <mxRectangle width="65" height="30" as="alternateBounds" />
          </mxGeometry>
        </mxCell>
        <mxCell id="bKKYOeD4bFl_OBeaU6XK-327" style="shape=partialRectangle;connectable=0;fillColor=none;top=0;left=0;bottom=0;right=0;align=left;spacingLeft=6;overflow=hidden;whiteSpace=wrap;html=1;" parent="bKKYOeD4bFl_OBeaU6XK-319" vertex="1">
          <mxGeometry x="95" width="150" height="30" as="geometry">
            <mxRectangle width="150" height="30" as="alternateBounds" />
          </mxGeometry>
        </mxCell>
        <mxCell id="bKKYOeD4bFl_OBeaU6XK-331" style="shape=partialRectangle;connectable=0;fillColor=none;top=0;left=0;bottom=0;right=0;align=left;spacingLeft=6;overflow=hidden;whiteSpace=wrap;html=1;" parent="bKKYOeD4bFl_OBeaU6XK-319" vertex="1">
          <mxGeometry x="245" width="80" height="30" as="geometry">
            <mxRectangle width="80" height="30" as="alternateBounds" />
          </mxGeometry>
        </mxCell>
        <mxCell id="bKKYOeD4bFl_OBeaU6XK-335" style="shape=partialRectangle;connectable=0;fillColor=none;top=0;left=0;bottom=0;right=0;align=left;spacingLeft=6;overflow=hidden;whiteSpace=wrap;html=1;" parent="bKKYOeD4bFl_OBeaU6XK-319" vertex="1">
          <mxGeometry x="325" width="90" height="30" as="geometry">
            <mxRectangle width="90" height="30" as="alternateBounds" />
          </mxGeometry>
        </mxCell>
        <mxCell id="bKKYOeD4bFl_OBeaU6XK-339" style="shape=partialRectangle;connectable=0;fillColor=none;top=0;left=0;bottom=0;right=0;align=left;spacingLeft=6;overflow=hidden;whiteSpace=wrap;html=1;" parent="bKKYOeD4bFl_OBeaU6XK-319" vertex="1">
          <mxGeometry x="415" width="90" height="30" as="geometry">
            <mxRectangle width="90" height="30" as="alternateBounds" />
          </mxGeometry>
        </mxCell>
        <mxCell id="bKKYOeD4bFl_OBeaU6XK-322" value="" style="shape=tableRow;horizontal=0;startSize=0;swimlaneHead=0;swimlaneBody=0;fillColor=none;collapsible=0;dropTarget=0;points=[[0,0.5],[1,0.5]];portConstraint=eastwest;top=0;left=0;right=0;bottom=0;" parent="bKKYOeD4bFl_OBeaU6XK-312" vertex="1">
          <mxGeometry y="110" width="505" height="30" as="geometry" />
        </mxCell>
        <mxCell id="bKKYOeD4bFl_OBeaU6XK-323" value="" style="shape=partialRectangle;connectable=0;fillColor=none;top=0;left=0;bottom=0;right=0;editable=1;overflow=hidden;whiteSpace=wrap;html=1;" parent="bKKYOeD4bFl_OBeaU6XK-322" vertex="1">
          <mxGeometry width="30" height="30" as="geometry">
            <mxRectangle width="30" height="30" as="alternateBounds" />
          </mxGeometry>
        </mxCell>
        <mxCell id="bKKYOeD4bFl_OBeaU6XK-324" value="" style="shape=partialRectangle;connectable=0;fillColor=none;top=0;left=0;bottom=0;right=0;align=left;spacingLeft=6;overflow=hidden;whiteSpace=wrap;html=1;" parent="bKKYOeD4bFl_OBeaU6XK-322" vertex="1">
          <mxGeometry x="30" width="65" height="30" as="geometry">
            <mxRectangle width="65" height="30" as="alternateBounds" />
          </mxGeometry>
        </mxCell>
        <mxCell id="bKKYOeD4bFl_OBeaU6XK-328" style="shape=partialRectangle;connectable=0;fillColor=none;top=0;left=0;bottom=0;right=0;align=left;spacingLeft=6;overflow=hidden;whiteSpace=wrap;html=1;" parent="bKKYOeD4bFl_OBeaU6XK-322" vertex="1">
          <mxGeometry x="95" width="150" height="30" as="geometry">
            <mxRectangle width="150" height="30" as="alternateBounds" />
          </mxGeometry>
        </mxCell>
        <mxCell id="bKKYOeD4bFl_OBeaU6XK-332" style="shape=partialRectangle;connectable=0;fillColor=none;top=0;left=0;bottom=0;right=0;align=left;spacingLeft=6;overflow=hidden;whiteSpace=wrap;html=1;" parent="bKKYOeD4bFl_OBeaU6XK-322" vertex="1">
          <mxGeometry x="245" width="80" height="30" as="geometry">
            <mxRectangle width="80" height="30" as="alternateBounds" />
          </mxGeometry>
        </mxCell>
        <mxCell id="bKKYOeD4bFl_OBeaU6XK-336" style="shape=partialRectangle;connectable=0;fillColor=none;top=0;left=0;bottom=0;right=0;align=left;spacingLeft=6;overflow=hidden;whiteSpace=wrap;html=1;" parent="bKKYOeD4bFl_OBeaU6XK-322" vertex="1">
          <mxGeometry x="325" width="90" height="30" as="geometry">
            <mxRectangle width="90" height="30" as="alternateBounds" />
          </mxGeometry>
        </mxCell>
        <mxCell id="bKKYOeD4bFl_OBeaU6XK-340" style="shape=partialRectangle;connectable=0;fillColor=none;top=0;left=0;bottom=0;right=0;align=left;spacingLeft=6;overflow=hidden;whiteSpace=wrap;html=1;" parent="bKKYOeD4bFl_OBeaU6XK-322" vertex="1">
          <mxGeometry x="415" width="90" height="30" as="geometry">
            <mxRectangle width="90" height="30" as="alternateBounds" />
          </mxGeometry>
        </mxCell>
        <mxCell id="bKKYOeD4bFl_OBeaU6XK-341" value="" style="edgeStyle=entityRelationEdgeStyle;fontSize=12;html=1;endArrow=ERmandOne;startArrow=ERmandOne;rounded=0;" parent="1" source="bKKYOeD4bFl_OBeaU6XK-312" target="bKKYOeD4bFl_OBeaU6XK-102" edge="1">
          <mxGeometry width="100" height="100" relative="1" as="geometry">
            <mxPoint x="368.96" y="2820" as="sourcePoint" />
            <mxPoint x="468.96" y="2720" as="targetPoint" />
          </mxGeometry>
        </mxCell>
        <mxCell id="bKKYOeD4bFl_OBeaU6XK-342" value="Because it formatted weird, here are some of the relations that might have gotten lost or confused&lt;br&gt;1 mailing address: 1 department&lt;br&gt;1 room to 1 optional department (it might be a department!)&lt;br&gt;Many measurements : 1 room&lt;br&gt;Many optional employees : 1 room&lt;br&gt;Many Employees : 1 Department&lt;br&gt;Many Rooms : 1 Building" style="text;html=1;align=center;verticalAlign=middle;resizable=0;points=[];autosize=1;strokeColor=none;fillColor=none;" parent="1" vertex="1">
          <mxGeometry x="50" y="1320" width="550" height="110" as="geometry" />
        </mxCell>
        <mxCell id="bKKYOeD4bFl_OBeaU6XK-344" value="The Columns marked with a &quot;Ref:&quot; are foreign keys referencing other tables&lt;br&gt;The combination of all columns marked &quot;Unique&quot; in a table form a unique key" style="text;html=1;align=center;verticalAlign=middle;resizable=0;points=[];autosize=1;strokeColor=none;fillColor=none;" parent="1" vertex="1">
          <mxGeometry x="45" y="1280" width="440" height="40" as="geometry" />
        </mxCell>
        <mxCell id="48a9iGowGdMYhrsN0CHI-3" value="N" style="text;html=1;strokeColor=none;fillColor=none;align=center;verticalAlign=middle;whiteSpace=wrap;rounded=0;" parent="1" vertex="1">
          <mxGeometry x="380" y="460" width="30" height="20" as="geometry" />
        </mxCell>
        <mxCell id="48a9iGowGdMYhrsN0CHI-4" value="M" style="text;html=1;strokeColor=none;fillColor=none;align=center;verticalAlign=middle;whiteSpace=wrap;rounded=0;" parent="1" vertex="1">
          <mxGeometry x="487.5" y="430" width="30" height="20" as="geometry" />
        </mxCell>
        <mxCell id="48a9iGowGdMYhrsN0CHI-5" value="" style="shape=link;html=1;rounded=0;entryX=0;entryY=1;entryDx=0;entryDy=0;exitX=1;exitY=0.5;exitDx=0;exitDy=0;" parent="1" source="fq8F5aoSM7j0K_lfMNp--98" target="fq8F5aoSM7j0K_lfMNp--26" edge="1">
          <mxGeometry width="100" relative="1" as="geometry">
            <mxPoint x="380" y="570" as="sourcePoint" />
            <mxPoint x="480" y="570" as="targetPoint" />
          </mxGeometry>
        </mxCell>
        <mxCell id="48a9iGowGdMYhrsN0CHI-6" value="" style="shape=link;html=1;rounded=0;entryX=0.5;entryY=1;entryDx=0;entryDy=0;exitX=0.5;exitY=0;exitDx=0;exitDy=0;" parent="1" source="fq8F5aoSM7j0K_lfMNp--36" target="fq8F5aoSM7j0K_lfMNp--78" edge="1">
          <mxGeometry width="100" relative="1" as="geometry">
            <mxPoint x="470" y="690" as="sourcePoint" />
            <mxPoint x="507.5" y="570" as="targetPoint" />
          </mxGeometry>
        </mxCell>
        <mxCell id="48a9iGowGdMYhrsN0CHI-7" value="Email Address" style="ellipse;whiteSpace=wrap;html=1;" parent="1" vertex="1">
          <mxGeometry x="645" y="555" width="60" height="40" as="geometry" />
        </mxCell>
        <mxCell id="48a9iGowGdMYhrsN0CHI-8" value="" style="shape=link;html=1;rounded=0;exitX=0.5;exitY=1;exitDx=0;exitDy=0;entryX=1;entryY=0;entryDx=0;entryDy=0;" parent="1" source="fq8F5aoSM7j0K_lfMNp--122" target="fq8F5aoSM7j0K_lfMNp--108" edge="1">
          <mxGeometry width="100" relative="1" as="geometry">
            <mxPoint x="380" y="470" as="sourcePoint" />
            <mxPoint x="480" y="470" as="targetPoint" />
          </mxGeometry>
        </mxCell>
        <mxCell id="48a9iGowGdMYhrsN0CHI-10" value="Tracked by" style="rhombus;whiteSpace=wrap;html=1;" parent="1" vertex="1">
          <mxGeometry x="85" y="680" width="80" height="80" as="geometry" />
        </mxCell>
        <mxCell id="48a9iGowGdMYhrsN0CHI-13" value="use" style="rounded=0;whiteSpace=wrap;html=1;" parent="1" vertex="1">
          <mxGeometry x="295" y="662.5" width="70" height="35" as="geometry" />
        </mxCell>
        <mxCell id="48a9iGowGdMYhrsN0CHI-16" value="" style="shape=link;html=1;rounded=0;exitX=1;exitY=1;exitDx=0;exitDy=0;entryX=0;entryY=0;entryDx=0;entryDy=0;" parent="1" source="fq8F5aoSM7j0K_lfMNp--108" target="48a9iGowGdMYhrsN0CHI-13" edge="1">
          <mxGeometry width="100" relative="1" as="geometry">
            <mxPoint x="380" y="640" as="sourcePoint" />
            <mxPoint x="480" y="640" as="targetPoint" />
          </mxGeometry>
        </mxCell>
        <mxCell id="48a9iGowGdMYhrsN0CHI-17" value="lab" style="rounded=0;whiteSpace=wrap;html=1;" parent="1" vertex="1">
          <mxGeometry x="233.96" y="720" width="60" height="30" as="geometry" />
        </mxCell>
        <mxCell id="48a9iGowGdMYhrsN0CHI-18" value="confrence" style="rounded=0;whiteSpace=wrap;html=1;" parent="1" vertex="1">
          <mxGeometry x="365" y="720" width="60" height="30" as="geometry" />
        </mxCell>
        <mxCell id="48a9iGowGdMYhrsN0CHI-19" value="office" style="rounded=0;whiteSpace=wrap;html=1;" parent="1" vertex="1">
          <mxGeometry x="298.96" y="740" width="60" height="30" as="geometry" />
        </mxCell>
        <mxCell id="48a9iGowGdMYhrsN0CHI-25" value="" style="shape=partialRectangle;whiteSpace=wrap;html=1;bottom=1;right=1;left=1;top=0;fillColor=none;routingCenterX=-0.5;" parent="1" vertex="1">
          <mxGeometry x="318.96" y="715" width="20" height="10" as="geometry" />
        </mxCell>
        <mxCell id="48a9iGowGdMYhrsN0CHI-26" value="" style="shape=partialRectangle;whiteSpace=wrap;html=1;bottom=1;right=1;left=1;top=0;fillColor=none;routingCenterX=-0.5;rotation=45;" parent="1" vertex="1">
          <mxGeometry x="270" y="700" width="20" height="10" as="geometry" />
        </mxCell>
        <mxCell id="48a9iGowGdMYhrsN0CHI-27" value="" style="shape=partialRectangle;whiteSpace=wrap;html=1;bottom=1;right=1;left=1;top=0;fillColor=none;routingCenterX=-0.5;rotation=-45;" parent="1" vertex="1">
          <mxGeometry x="365" y="697.5" width="20" height="10" as="geometry" />
        </mxCell>
        <mxCell id="48a9iGowGdMYhrsN0CHI-32" value="" style="shape=link;html=1;rounded=0;exitX=0.25;exitY=1;exitDx=0;exitDy=0;entryX=0.5;entryY=0;entryDx=0;entryDy=0;" parent="1" source="fq8F5aoSM7j0K_lfMNp--108" target="48a9iGowGdMYhrsN0CHI-10" edge="1">
          <mxGeometry width="100" relative="1" as="geometry">
            <mxPoint x="380" y="580" as="sourcePoint" />
            <mxPoint x="480" y="580" as="targetPoint" />
          </mxGeometry>
        </mxCell>
        <mxCell id="48a9iGowGdMYhrsN0CHI-33" value="" style="shape=link;html=1;rounded=0;exitX=0.5;exitY=1;exitDx=0;exitDy=0;entryX=0.5;entryY=0;entryDx=0;entryDy=0;" parent="1" source="48a9iGowGdMYhrsN0CHI-10" target="fq8F5aoSM7j0K_lfMNp--105" edge="1">
          <mxGeometry width="100" relative="1" as="geometry">
            <mxPoint x="380" y="580" as="sourcePoint" />
            <mxPoint x="480" y="580" as="targetPoint" />
          </mxGeometry>
        </mxCell>
        <mxCell id="SNrVMuQwNA9T67Mmig9U-2" value="" style="edgeStyle=entityRelationEdgeStyle;fontSize=12;html=1;endArrow=ERoneToMany;startArrow=ERoneToMany;rounded=0;entryX=1;entryY=0.5;entryDx=0;entryDy=0;exitX=1;exitY=0.5;exitDx=0;exitDy=0;" edge="1" parent="1" source="bKKYOeD4bFl_OBeaU6XK-14" target="bKKYOeD4bFl_OBeaU6XK-50">
          <mxGeometry width="100" height="100" relative="1" as="geometry">
            <mxPoint x="-5" y="2040" as="sourcePoint" />
            <mxPoint x="95" y="1940" as="targetPoint" />
          </mxGeometry>
        </mxCell>
        <mxCell id="SNrVMuQwNA9T67Mmig9U-3" value="Room No." style="edgeLabel;html=1;align=center;verticalAlign=middle;resizable=0;points=[];" vertex="1" connectable="0" parent="SNrVMuQwNA9T67Mmig9U-2">
          <mxGeometry x="-0.0986" relative="1" as="geometry">
            <mxPoint as="offset" />
          </mxGeometry>
        </mxCell>
        <mxCell id="SNrVMuQwNA9T67Mmig9U-4" value="" style="edgeStyle=entityRelationEdgeStyle;fontSize=12;html=1;endArrow=ERzeroToMany;startArrow=ERmandOne;rounded=0;exitX=0.007;exitY=1.2;exitDx=0;exitDy=0;exitPerimeter=0;entryX=0;entryY=0.5;entryDx=0;entryDy=0;" edge="1" parent="1" source="bKKYOeD4bFl_OBeaU6XK-11" target="bKKYOeD4bFl_OBeaU6XK-14">
          <mxGeometry width="100" height="100" relative="1" as="geometry">
            <mxPoint x="370" y="2010" as="sourcePoint" />
            <mxPoint x="470" y="1910" as="targetPoint" />
          </mxGeometry>
        </mxCell>
        <mxCell id="SNrVMuQwNA9T67Mmig9U-5" value="name" style="edgeLabel;html=1;align=center;verticalAlign=middle;resizable=0;points=[];" vertex="1" connectable="0" parent="SNrVMuQwNA9T67Mmig9U-4">
          <mxGeometry x="-0.0005" y="-2" relative="1" as="geometry">
            <mxPoint as="offset" />
          </mxGeometry>
        </mxCell>
        <mxCell id="SNrVMuQwNA9T67Mmig9U-26" value="" style="edgeStyle=entityRelationEdgeStyle;fontSize=12;html=1;endArrow=ERzeroToMany;startArrow=ERmandOne;rounded=0;entryX=0;entryY=0.5;entryDx=0;entryDy=0;exitX=0.035;exitY=0.013;exitDx=0;exitDy=0;exitPerimeter=0;" edge="1" parent="1" source="bKKYOeD4bFl_OBeaU6XK-275" target="bKKYOeD4bFl_OBeaU6XK-21">
          <mxGeometry width="100" height="100" relative="1" as="geometry">
            <mxPoint x="370" y="2220" as="sourcePoint" />
            <mxPoint x="470" y="2120" as="targetPoint" />
          </mxGeometry>
        </mxCell>
        <mxCell id="SNrVMuQwNA9T67Mmig9U-27" value="Text" style="edgeLabel;html=1;align=center;verticalAlign=middle;resizable=0;points=[];" vertex="1" connectable="0" parent="SNrVMuQwNA9T67Mmig9U-26">
          <mxGeometry y="2" relative="1" as="geometry">
            <mxPoint as="offset" />
          </mxGeometry>
        </mxCell>
        <mxCell id="SNrVMuQwNA9T67Mmig9U-29" value="" style="edgeStyle=entityRelationEdgeStyle;fontSize=12;html=1;endArrow=ERoneToMany;startArrow=ERoneToMany;rounded=0;entryX=1;entryY=0.5;entryDx=0;entryDy=0;exitX=1;exitY=0.5;exitDx=0;exitDy=0;" edge="1" parent="1" source="bKKYOeD4bFl_OBeaU6XK-96" target="bKKYOeD4bFl_OBeaU6XK-44">
          <mxGeometry width="100" height="100" relative="1" as="geometry">
            <mxPoint x="370" y="2490" as="sourcePoint" />
            <mxPoint x="470" y="2390" as="targetPoint" />
          </mxGeometry>
        </mxCell>
      </root>
    </mxGraphModel>
  </diagram>
</mxfile>
